<svg xmlns="http://www.w3.org/2000/svg" width="25" height="25" viewBox="0 0 25 25">
  <g id="Group_6110" data-name="Group 6110" transform="translate(-955 -2966)">
    <rect id="Rectangle_478" data-name="Rectangle 478" width="25" height="25" rx="3" transform="translate(955 2966)" fill="#fff"/>
    <path id="Icon_awesome-linkedin-in" data-name="Icon awesome-linkedin-in" d="M3.065,13.7H.226V4.552H3.065ZM1.644,3.3a1.652,1.652,0,1,1,1.644-1.66A1.658,1.658,0,0,1,1.644,3.3ZM13.692,13.7H10.859V9.244c0-1.061-.021-2.421-1.476-2.421-1.476,0-1.7,1.152-1.7,2.345V13.7H4.844V4.552H7.567V5.8h.04a2.983,2.983,0,0,1,2.686-1.476c2.873,0,3.4,1.892,3.4,4.35V13.7Z" transform="translate(960.653 2971.652)" fill="#28a79e"/>
  </g>
</svg>
