<svg xmlns="http://www.w3.org/2000/svg" width="25" height="25" viewBox="0 0 25 25">
  <g id="Group_6109" data-name="Group 6109" transform="translate(-912 -2966)">
    <rect id="Rectangle_477" data-name="Rectangle 477" width="25" height="25" rx="3" transform="translate(912 2966)" fill="#fff"/>
    <path id="Icon_awesome-twitter" data-name="Icon awesome-twitter" d="M15.575,6.894c.011.154.011.308.011.463A10.053,10.053,0,0,1,5.463,17.48,10.054,10.054,0,0,1,0,15.883a7.36,7.36,0,0,0,.859.044,7.125,7.125,0,0,0,4.417-1.52A3.564,3.564,0,0,1,1.95,11.939a4.486,4.486,0,0,0,.672.055,3.763,3.763,0,0,0,.936-.121A3.558,3.558,0,0,1,.7,8.381V8.337a3.583,3.583,0,0,0,1.608.452,3.563,3.563,0,0,1-1.1-4.758A10.113,10.113,0,0,0,8.547,7.754a4.016,4.016,0,0,1-.088-.815A3.561,3.561,0,0,1,14.617,4.5a7,7,0,0,0,2.258-.859A3.548,3.548,0,0,1,15.31,5.606a7.132,7.132,0,0,0,2.049-.551,7.648,7.648,0,0,1-1.784,1.839Z" transform="translate(915.82 2968.07)" fill="#1ebdb6"/>
  </g>
</svg>
