<svg xmlns="http://www.w3.org/2000/svg" width="195.619" height="313.905" viewBox="0 0 195.619 313.905">
  <path id="Intersection_2" data-name="Intersection 2" d="M-1524.888,326.843V307.7l42.269,9.759-4.2,18.179Zm0-56.246V188.553l15.334-9.582,37.468,59.963a6.363,6.363,0,0,0,8.761,2.022l27.284-17.049,49.072,78.531Zm96.265-58.822a6.361,6.361,0,0,0-8.765-2.024l-27.284,17.049-37.464-59.961a6.367,6.367,0,0,0-3.964-2.826,6.371,6.371,0,0,0-4.8.8l-13.987,8.74V91.241a19.909,19.909,0,0,1,7.562.272l172.563,39.839a19.983,19.983,0,0,1,14.974,23.964l-30.646,132.741a19.871,19.871,0,0,1-11.8,13.953Zm12.407-41.456a26.824,26.824,0,0,0,20.08,32.134A26.823,26.823,0,0,0-1364,182.374a26.824,26.824,0,0,0-20.08-32.135,26.8,26.8,0,0,0-6.03-.69A26.839,26.839,0,0,0-1416.216,170.32Zm22.941,19.742a14.1,14.1,0,0,1-10.548-16.88,14.092,14.092,0,0,1,16.88-10.548,14.088,14.088,0,0,1,10.548,16.88,14.1,14.1,0,0,1-13.713,10.911A14.06,14.06,0,0,1-1393.275,190.061ZM-1524.888,62.55V21.728l42.723,9.864a19.886,19.886,0,0,1,14.9,23.852l-.276,1.2,42.848,9.892-4.2,18.179Z" transform="translate(1524.888 -21.728)" fill="#e9f6f5"/>
</svg>
