<svg xmlns="http://www.w3.org/2000/svg" width="227.881" height="306.025" viewBox="0 0 227.881 306.025">
  <path id="Intersection_1" data-name="Intersection 1" d="M-1565.8,339.625l-70.458-165.988a26.449,26.449,0,0,1,14.011-34.679l211.75-89.883v103.8l-33.508,82.944-39.484-15.952a8.419,8.419,0,0,0-10.961,4.652l-52.76,130.585A26.3,26.3,0,0,1-1565.8,339.625Zm-.855-185.084a35.506,35.506,0,0,0-18.789,46.5,35.505,35.505,0,0,0,46.5,18.788,35.5,35.5,0,0,0,18.788-46.5,35.515,35.515,0,0,0-32.693-21.609A35.288,35.288,0,0,0-1566.658,154.541Zm84.663,84.085,39.483,15.952a8.424,8.424,0,0,0,10.957-4.65l21.055-52.115V302.434l-117.411,49.838Zm-87.955-44.159a18.648,18.648,0,0,1,9.87-24.429,18.652,18.652,0,0,1,24.43,9.869,18.657,18.657,0,0,1-9.87,24.43,18.523,18.523,0,0,1-7.253,1.481A18.662,18.662,0,0,1-1569.95,194.467Z" transform="translate(1638.381 -49.076)" fill="#e9f6f5"/>
</svg>
