<svg xmlns="http://www.w3.org/2000/svg" width="34.018" height="33.988" viewBox="0 0 34.018 33.988">
  <g id="edit-image" transform="translate(-2 -2)">
    <circle id="Ellipse_3" data-name="Ellipse 3" cx="3.035" cy="3.035" r="3.035" transform="translate(9.89 6.855)" fill="#28a79e"/>
    <path id="Path_9820" data-name="Path 9820" d="M20.2,11.364a1.173,1.173,0,0,0-1.7,0L12.069,17.8,9.277,15.006a1.173,1.173,0,0,0-1.7,0L6,16.584v7.769h7.04l.121-.121,9.954-9.954Z" transform="translate(0.855 1.925)" fill="#28a79e"/>
    <path id="Path_9821" data-name="Path 9821" d="M4.428,27.491V5.642A1.305,1.305,0,0,1,5.642,4.428H27.491A1.305,1.305,0,0,1,28.7,5.642v6.676a7.848,7.848,0,0,1,2.428-.486V5.642A3.577,3.577,0,0,0,27.491,2H5.642A3.577,3.577,0,0,0,2,5.642V27.491a3.577,3.577,0,0,0,3.642,3.642h6.676L12.8,28.7H5.642a1.147,1.147,0,0,1-1.214-1.214Z" fill="#28a79e"/>
    <path id="Path_9822" data-name="Path 9822" d="M30.162,13.341a4.616,4.616,0,0,0-6.555,0L23,13.947,29.555,20.5l.607-.607A4.616,4.616,0,0,0,30.162,13.341Z" transform="translate(4.491 2.133)" fill="#28a79e"/>
    <path id="Path_9823" data-name="Path 9823" d="M13.586,25.075a2.653,2.653,0,0,0-.364.607l-1.214,6.069a.979.979,0,0,0,.364,1.092,1.694,1.694,0,0,0,1.092.364l6.069-1.214a.668.668,0,0,0,.607-.364L30.216,21.555,23.661,15Z" transform="translate(2.13 2.78)" fill="#28a79e"/>
  </g>
</svg>
