<svg id="Group_6106" data-name="Group 6106" xmlns="http://www.w3.org/2000/svg" width="31.563" height="31.563" viewBox="0 0 31.563 31.563">
  <path id="Path_9857" data-name="Path 9857" d="M16.236,13.247a.987.987,0,0,1-.7-1.685l4.275-4.275a.987.987,0,1,1,1.4,1.4l-4.277,4.275a.979.979,0,0,1-.7.289Z" transform="translate(4.806 2.205)" fill="#28a79e"/>
  <path id="Path_9858" data-name="Path 9858" d="M17.1,12H2.63A2.63,2.63,0,0,0,0,14.63V25.151a2.63,2.63,0,0,0,2.63,2.63H17.1a2.63,2.63,0,0,0,2.63-2.63V14.63A2.63,2.63,0,0,0,17.1,12Zm-.658,13.151H3.288a.658.658,0,0,1-.658-.658V17.26H17.1v7.233A.658.658,0,0,1,16.439,25.151Z" transform="translate(0 3.781)" fill="#28a79e"/>
  <g id="Group_6105" data-name="Group 6105">
    <path id="Path_9859" data-name="Path 9859" d="M27.618,0H3.945A3.95,3.95,0,0,0,0,3.945V15.492a3.92,3.92,0,0,1,2.63-1.026V6.576h26.3V24.987A1.316,1.316,0,0,1,27.618,26.3H21.042v2.63h6.576a3.95,3.95,0,0,0,3.945-3.945V3.945A3.95,3.95,0,0,0,27.618,0Z" fill="#28a79e"/>
  </g>
  <path id="Path_9860" data-name="Path 9860" d="M19.274,13.26H15.986A.987.987,0,0,1,15,12.274V8.986a.986.986,0,0,1,1.683-.7l3.288,3.288a.986.986,0,0,1-.7,1.683Z" transform="translate(4.727 2.521)" fill="#28a79e"/>
</svg>
