<svg xmlns="http://www.w3.org/2000/svg" width="30.236" height="30.649" viewBox="0 0 30.236 30.649">
  <g id="Group_3928" data-name="Group 3928" transform="translate(0 -2)">
    <g id="_23_Upload" data-name="23 Upload">
      <g id="Group_3927" data-name="Group 3927">
        <path id="Path_9806" data-name="Path 9806" d="M28.76,231a1.539,1.539,0,0,0-1.476,1.594c0,7.244-5.457,13.136-12.165,13.136S2.953,239.838,2.953,232.594A1.539,1.539,0,0,0,1.476,231,1.539,1.539,0,0,0,0,232.594a16.873,16.873,0,0,0,4.429,11.542,14.336,14.336,0,0,0,21.378,0,16.885,16.885,0,0,0,4.429-11.542A1.539,1.539,0,0,0,28.76,231Z" transform="translate(0 -216.269)" fill="#28a79e"/>
        <path id="Path_9807" data-name="Path 9807" d="M154.17,7.174l2.353-2.353v12.4a1.594,1.594,0,0,0,3.188,0V4.821l2.353,2.353a1.6,1.6,0,1,0,2.257-2.257L160.311.906a3.1,3.1,0,0,0-4.381,0l-4.011,4.011a1.594,1.594,0,0,0,2.251,2.257Z" transform="translate(173.238 20.816) rotate(180)" fill="#28a79e"/>
      </g>
    </g>
  </g>
</svg>
