<svg xmlns="http://www.w3.org/2000/svg" width="26" height="26" viewBox="0 0 26 26">
  <g id="Group_4936" data-name="Group 4936" transform="translate(0)">
    <circle id="Ellipse_3" data-name="Ellipse 3" cx="13" cy="13" r="13" transform="translate(0)" fill="#ff7e55"/>
    <g id="Group_1824" data-name="Group 1824" transform="translate(6.114 1.843)">
      <path id="Path_51" data-name="Path 51" d="M-901.777-1270.232a5.208,5.208,0,0,1-.553,1.338c-1.927,3.031-3.881,6.045-5.825,9.066-1.349,2.094-2.685,4.2-4.044,6.283a2.118,2.118,0,0,1-3.589.161c-1.528-1.818-3.084-3.614-4.637-5.412a2.128,2.128,0,0,1,.073-3.007,2.078,2.078,0,0,1,2.994.148c.994,1.089,1.929,2.233,2.89,3.352.08.092.161.182.294.332.551-.672,1.054-1.29,1.563-1.9q2.348-2.829,4.7-5.655c1.278-1.54,2.545-3.088,3.836-4.617a6.3,6.3,0,0,1,1.011-.939.812.812,0,0,1,.987-.054A.794.794,0,0,1-901.777-1270.232Z" transform="translate(921.011 1271.283)" fill="#fff"/>
    </g>
  </g>
</svg>
