<svg xmlns="http://www.w3.org/2000/svg" width="16.932" height="17.423" viewBox="0 0 16.932 17.423">
  <g id="Icon_feather-info" data-name="Icon feather-info" transform="translate(0 1.001)">
    <path id="Path_9854" data-name="Path 9854" d="M9.6,1.5A8.1,8.1,0,0,1,12.75,17.059a8.1,8.1,0,0,1-6.3-14.922A8.048,8.048,0,0,1,9.6,1.5Zm0,14.723A6.625,6.625,0,1,0,2.972,9.6,6.633,6.633,0,0,0,9.6,16.223Z" transform="translate(-0.764 -1.274)" fill="#404040"/>
    <path id="Path_9855" data-name="Path 9855" d="M16.982,21.4A.982.982,0,0,1,16,20.418V16.982a.982.982,0,1,1,1.963,0v3.436A.982.982,0,0,1,16.982,21.4Z" transform="translate(-8.148 -8.658)" fill="#404040"/>
    <path id="Path_9856" data-name="Path 9856" transform="translate(0 -1.001)"/>
    <circle id="Ellipse_28" data-name="Ellipse 28" cx="0.982" cy="0.982" r="0.982" transform="translate(7.852 3.662)" fill="#404040"/>
  </g>
</svg>
