<svg id="Component_22_1" data-name="Component 22 – 1" xmlns="http://www.w3.org/2000/svg" width="40" height="40" viewBox="0 0 40 40">
  <g id="Rectangle_487" data-name="Rectangle 487" fill="none" stroke="#28a79e" stroke-width="1">
    <rect width="40" height="40" rx="20" stroke="none"/>
    <rect x="0.5" y="0.5" width="39" height="39" rx="19.5" fill="none"/>
  </g>
  <g id="Icon_feather-link" data-name="Icon feather-link" transform="translate(9.647 10.05)">
    <path id="Path_9629" data-name="Path 9629" d="M18.637,15.429q-.188,0-.377-.013a5.261,5.261,0,0,1-3.839-2.1A.858.858,0,1,1,15.8,12.29a3.547,3.547,0,0,0,5.349.383l2.643-2.643a3.547,3.547,0,1,0-5.016-5.016L17.256,6.522A.858.858,0,0,1,16.045,5.3L17.56,3.8A5.264,5.264,0,0,1,25,11.243l-2.643,2.643A5.26,5.26,0,0,1,18.637,15.429Z" transform="translate(-6.911 -1.971)" fill="#28a79e"/>
    <path id="Path_9629_-_Outline" data-name="Path 9629 - Outline" d="M18.673,15.751c-.132,0-.266,0-.4-.014a5.547,5.547,0,0,1-4.048-2.212,1.145,1.145,0,0,1,.916-1.83,1.151,1.151,0,0,1,.917.459,3.259,3.259,0,0,0,2.378,1.3c.077.006.156.008.234.008a3.239,3.239,0,0,0,2.306-.956l2.643-2.644a3.261,3.261,0,1,0-4.611-4.611L17.494,6.761a1.145,1.145,0,1,1-1.614-1.623l1.515-1.507a5.55,5.55,0,0,1,7.846,7.851L22.6,14.125A5.512,5.512,0,0,1,18.673,15.751Zm-3.53-3.484a.572.572,0,0,0-.458.915,4.975,4.975,0,0,0,3.631,1.984c.118.008.238.013.357.013a4.944,4.944,0,0,0,3.519-1.459l2.643-2.643A4.978,4.978,0,0,0,17.8,4.036L16.283,5.544a.572.572,0,0,0,.807.811l1.517-1.509a3.833,3.833,0,1,1,5.42,5.421l-2.643,2.643a3.807,3.807,0,0,1-2.71,1.123c-.091,0-.184,0-.275-.01A3.831,3.831,0,0,1,15.6,12.5.568.568,0,0,0,15.144,12.268Z" transform="translate(-6.947 -2.008)" fill="#28a79e"/>
    <path id="Path_9630" data-name="Path 9630" d="M7.506,25.911a5.262,5.262,0,0,1-3.722-8.983l2.643-2.643a5.264,5.264,0,0,1,7.938.569.858.858,0,0,1-1.375,1.028A3.547,3.547,0,0,0,7.642,15.5L5,18.142a3.547,3.547,0,1,0,5.016,5.016l1.506-1.507a.858.858,0,1,1,1.214,1.214l-1.506,1.507A5.248,5.248,0,0,1,7.506,25.911Z" transform="translate(-1.956 -6.297)" fill="#28a79e"/>
    <path id="Path_9630_-_Outline" data-name="Path 9630 - Outline" d="M7.543,26.234h0a5.548,5.548,0,0,1-3.924-9.472l2.643-2.643a5.512,5.512,0,0,1,3.924-1.626c.132,0,.266,0,.4.014a5.547,5.547,0,0,1,4.048,2.212,1.145,1.145,0,0,1-.916,1.83,1.151,1.151,0,0,1-.917-.459,3.259,3.259,0,0,0-2.378-1.3c-.077-.006-.156-.008-.234-.008a3.239,3.239,0,0,0-2.306.956L5.237,18.381a3.261,3.261,0,0,0,4.611,4.611l1.506-1.507A1.145,1.145,0,0,1,12.974,23.1L11.467,24.61a5.513,5.513,0,0,1-3.925,1.623Zm2.643-13.169a4.944,4.944,0,0,0-3.519,1.459L4.023,17.166a4.975,4.975,0,0,0,3.519,8.495h0a4.945,4.945,0,0,0,3.52-1.456L12.569,22.7a.572.572,0,0,0-.81-.809L10.253,23.4a3.833,3.833,0,1,1-5.421-5.421l2.643-2.643a3.807,3.807,0,0,1,2.71-1.123c.091,0,.184,0,.275.01a3.831,3.831,0,0,1,2.8,1.527.572.572,0,1,0,.917-.686,4.975,4.975,0,0,0-3.631-1.984C10.424,13.069,10.3,13.065,10.186,13.065Z" transform="translate(-1.993 -6.333)" fill="#28a79e"/>
  </g>
</svg>
