<svg id="_23_Upload" data-name="23 Upload" xmlns="http://www.w3.org/2000/svg" width="23.152" height="25" viewBox="0 0 23.152 25">
  <g id="Group_3927" data-name="Group 3927">
    <path id="Path_9806" data-name="Path 9806" d="M22.022,231a1.179,1.179,0,0,0-1.13,1.221c0,5.547-4.178,10.059-9.315,10.059s-9.315-4.512-9.315-10.059A1.179,1.179,0,0,0,1.13,231,1.179,1.179,0,0,0,0,232.221a12.92,12.92,0,0,0,3.391,8.838,10.977,10.977,0,0,0,16.369,0,12.929,12.929,0,0,0,3.391-8.838A1.179,1.179,0,0,0,22.022,231Z" transform="translate(0 -219.721)" fill="#fff"/>
    <path id="Path_9807" data-name="Path 9807" d="M153.533,5.493l1.8-1.8V16.25a1.221,1.221,0,1,0,2.441,0V3.691l1.8,1.8a1.222,1.222,0,0,0,1.729-1.729L158.235.693a2.375,2.375,0,0,0-3.354,0l-3.071,3.071a1.221,1.221,0,0,0,1.724,1.729Z" transform="translate(-144.979 0)" fill="#fff"/>
  </g>
</svg>
