<svg xmlns="http://www.w3.org/2000/svg" width="311.998" height="299.134" viewBox="0 0 311.998 299.134">
  <g id="Group_6152" data-name="Group 6152" transform="translate(965.475 4532.268)">
    <g id="Group_3979" data-name="Group 3979" transform="translate(-965.475 -4532.268)">
      <g id="Background_Complete" data-name="Background Complete" transform="translate(14.983 0)">
        <path id="Path_9813" data-name="Path 9813" d="M258.2,357.11V380.8h-8.14l17.551,20.443,16.458-20.022h-8.318V357.11Z" transform="translate(-86.182 -102.111)" fill="#ebebeb"/>
        <path id="Path_9814" data-name="Path 9814" d="M303.793,107.13v8.34H300.93l6.176,7.2,5.791-7.048H309.97v-8.49Z" transform="translate(-100.729 -30.625)" fill="#ebebeb"/>
        <path id="Path_9815" data-name="Path 9815" d="M406.294,215.5v17.123H400.41L413.091,247.4l11.9-14.466h-6.012V215.5Z" transform="translate(-129.177 -61.615)" fill="#ebebeb"/>
        <path id="Path_9816" data-name="Path 9816" d="M26.434,312.44v17.123H20.55l12.681,14.773,11.9-14.473H39.115V312.44Z" transform="translate(-20.55 -89.337)" fill="#ebebeb"/>
        <path id="Path_9817" data-name="Path 9817" d="M174.531,351.64v12.788H170.14l9.468,11.025,8.875-10.8h-4.491V351.64Z" transform="translate(-63.328 -100.546)" fill="#ebebeb"/>
        <path id="Path_9818" data-name="Path 9818" d="M136.956,89.191c.6-4.348-5.541-7.926-10.154-8.3-2.192-.179-4.477.164-6.562-.564-4.513-1.571-6.319-7.4-10.711-9.282-3.292-1.392-7.076-.157-10.275,1.428s-6.341,3.634-9.911,3.863c-3.1.193-6.469-.957-9.182.557-2.021,1.135-3.085,3.463-4.948,4.834s-4.2,1.635-6.426,1.757-4.606.143-6.669,1.085-3.763,3.127-3.335,5.348Z" transform="translate(-54.349 -47.167)" fill="#f5f5f5"/>
        <path id="Path_9819" data-name="Path 9819" d="M441.253,203.795c.521-3.784-4.82-6.9-8.833-7.219-1.914-.157-3.9.136-5.712-.493-3.92-1.371-5.491-6.426-9.325-8.054-2.856-1.214-6.162-.136-8.933,1.264s-5.527,3.156-8.626,3.356c-2.7.171-5.627-.828-7.99.486-1.757.985-2.678,3.013-4.284,4.206a10.063,10.063,0,0,1-5.619,1.528,15.842,15.842,0,0,0-5.8.943c-1.792.814-3.277,2.72-2.906,4.656Z" transform="translate(-144.272 -80.642)" fill="#f5f5f5"/>
        <path id="Path_9820" data-name="Path 9820" d="M210.379,45.81c.257-1.849-2.356-3.37-4.32-3.527a11.332,11.332,0,0,1-2.792-.243c-1.921-.671-2.685-3.149-4.563-3.941a5.356,5.356,0,0,0-4.37.621,11.421,11.421,0,0,1-4.213,1.642c-1.321.086-2.756-.407-3.913.236-.857.486-1.307,1.471-2.1,2.056a5.084,5.084,0,0,1-2.749.714,7.555,7.555,0,0,0-2.856.464,2.235,2.235,0,0,0-1.428,2.271Z" transform="translate(-88.194 -37.845)" fill="#e0e0e0"/>
        <path id="Path_9821" data-name="Path 9821" d="M439.187,426.823c.471-3.406-4.334-6.2-7.94-6.491-1.721-.143-3.506.121-5.134-.443-3.527-1.235-4.941-5.791-8.383-7.247-2.578-1.085-5.541-.114-8.04,1.142s-4.963,2.856-7.754,3.013c-2.421.157-5.055-.714-7.183.443-1.578.878-2.406,2.706-3.863,3.777a9.126,9.126,0,0,1-5.062,1.371,14.175,14.175,0,0,0-5.212.857c-1.642.743-2.942,2.442-2.606,4.177Z" transform="translate(-145.641 -144.89)" fill="#e0e0e0"/>
      </g>
      <g id="Speech_Bubble" data-name="Speech Bubble" transform="translate(75.463 25.87)">
        <path id="Path_9822" data-name="Path 9822" d="M191.1,123.475l-5.505-9.7a25.991,25.991,0,1,0-6.226,6.926h0Z" transform="translate(-137.352 -74.096)" fill="#fafafa"/>
        <path id="Path_9823" data-name="Path 9823" d="M191.053,123.454l-11.767-2.678h-.136l.086-.114h0l.136.129a26.012,26.012,0,0,1-12.467,5.262,22.963,22.963,0,0,1-4.12.207c-.714,0-1.428-.057-2.142-.114l-2.192-.336a26.034,26.034,0,0,1-20.336-32.024,25.619,25.619,0,0,1,5.577-10.71,26.012,26.012,0,0,1,10-7.14,26.534,26.534,0,0,1,11.653-1.792,25.641,25.641,0,0,1,10.71,3.163,26.348,26.348,0,0,1,12.339,15.18,28.34,28.34,0,0,1,1.128,8.454,25.919,25.919,0,0,1-3.884,12.853V113.7l5.427,9.754-5.584-9.661V113.7a25.827,25.827,0,0,0,3.784-12.8,28.2,28.2,0,0,0-1.15-8.361,26.1,26.1,0,0,0-12.224-14.995,25.255,25.255,0,0,0-10.553-3.106,26.1,26.1,0,0,0-11.489,1.778,25.641,25.641,0,0,0-9.882,7.09,25.3,25.3,0,0,0-5.5,10.539,26.119,26.119,0,0,0-.307,11.425,25.527,25.527,0,0,0,4.32,9.918,25.941,25.941,0,0,0,16.03,10.3l2.142.336c.714.064,1.428.086,2.142.121a23.176,23.176,0,0,0,4.077-.186,25.884,25.884,0,0,0,12.389-5.148l.571-.443-.443.571h0l-.057-.143Z" transform="translate(-137.302 -74.075)" fill="#ed5929"/>
      </g>
      <g id="Cloud_2" data-name="Cloud 2" transform="translate(50.406 103.083)">
        <path id="Path_9836" data-name="Path 9836" d="M206.469,324.84v34.609H194.58L220.207,389.3l24.034-29.24H232.088V324.84Z" transform="translate(-105.74 -195.965)" fill="#567aff"/>
        <path id="Path_9837" data-name="Path 9837" d="M206.469,324.84v34.609H194.58L220.207,389.3l24.034-29.24H232.088V324.84Z" transform="translate(-105.74 -195.965)" fill="#128179"/>
        <path id="Path_9838" data-name="Path 9838" d="M286.509,233.885A68.833,68.833,0,0,0,166.08,208.073a57.917,57.917,0,0,0-6.626-.414,57.244,57.244,0,1,0,0,114.488H284.1a44.163,44.163,0,0,0,2.413-88.262Z" transform="translate(-102.21 -182.212)" fill="#28a79e"/>
        <path id="Path_9839" data-name="Path 9839" d="M194.566,257.2a1.241,1.241,0,0,1-.057-.378c0-.286-.043-.643-.071-1.078a5.1,5.1,0,0,0-.043-.785c-.043-.286-.071-.593-.107-.921-.093-.664-.15-1.428-.336-2.242-.079-.414-.164-.85-.257-1.3s-.236-.9-.357-1.378c-.221-.964-.593-1.956-.95-3.006a37.843,37.843,0,0,0-3.192-6.426,38.329,38.329,0,0,0-4.463-5.662c-.793-.771-1.535-1.528-2.306-2.142-.378-.314-.714-.635-1.092-.914l-1.064-.785c-.657-.521-1.321-.9-1.878-1.264l-.785-.5-.714-.371-.943-.535a1.264,1.264,0,0,1-.321-.207,2.038,2.038,0,0,1,.35.143l.985.471.714.35c.25.136.514.3.807.471a21.421,21.421,0,0,1,1.928,1.228l1.078.771c.378.271.714.6,1.121.907a30.3,30.3,0,0,1,2.349,2.142,33.688,33.688,0,0,1,7.733,12.246,30.21,30.21,0,0,1,.928,3.042c.114.486.257.943.343,1.428s.157.893.229,1.307a22.14,22.14,0,0,1,.286,2.271c0,.336.064.643.079.935s0,.543,0,.785v1.085A2.57,2.57,0,0,1,194.566,257.2Z" transform="translate(-123.206 -195.105)" fill="#263238"/>
        <path id="Path_9840" data-name="Path 9840" d="M162.5,251.034c-.05.05-.8-.714-2.142-1.707a23.721,23.721,0,0,0-12.2-4.6c-1.692-.143-2.749-.079-2.749-.143a2.478,2.478,0,0,1,.714-.1,15,15,0,0,1,2.028,0,21.478,21.478,0,0,1,12.353,4.641,14.719,14.719,0,0,1,1.507,1.357A3.2,3.2,0,0,1,162.5,251.034Z" transform="translate(-114.564 -200.01)" fill="#263238"/>
        <path id="Path_9841" data-name="Path 9841" d="M194.62,320.953a5.568,5.568,0,0,1-1.128,0c-.714,0-1.785,0-3.085-.064-2.6-.093-6.191-.307-10.146-.714s-7.519-.878-10.089-1.3c-1.285-.207-2.321-.386-3.035-.528a6.632,6.632,0,0,1-1.107-.257,7.946,7.946,0,0,1,1.128.114l3.056.414c2.571.35,6.134.8,10.082,1.185s7.533.643,10.125.8l3.07.186A8.159,8.159,0,0,1,194.62,320.953Z" transform="translate(-120.46 -221.068)" fill="#263238"/>
        <path id="Path_9842" data-name="Path 9842" d="M343.773,254.083a2.083,2.083,0,0,1-.4.05l-1.15.079a14.436,14.436,0,0,0-1.807.15c-.7.093-1.514.136-2.392.293l-1.385.221c-.478.079-.971.2-1.485.3-1.028.193-2.106.5-3.249.8a47.933,47.933,0,0,0-13.831,6.462c-.964.678-1.892,1.307-2.7,1.978-.414.328-.821.628-1.185.943l-1.057.921c-.714.571-1.25,1.157-1.764,1.642s-.935.928-1.278,1.3l-.793.828a1.807,1.807,0,0,1-.3.271,1.862,1.862,0,0,1,.243-.321c.193-.236.443-.521.714-.878a12.024,12.024,0,0,1,1.242-1.342c.528-.5,1.05-1.107,1.728-1.692l1.05-.943c.364-.328.771-.635,1.178-.971.807-.714,1.735-1.328,2.7-2.021a46.234,46.234,0,0,1,14-6.5c1.15-.293,2.242-.593,3.277-.771.521-.1,1.021-.214,1.507-.286l1.428-.193c.885-.143,1.7-.179,2.406-.243a17.912,17.912,0,0,1,1.828-.086h1.15a1.569,1.569,0,0,1,.328.014Z" transform="translate(-161.345 -202.76)" fill="#263238"/>
        <path id="Path_9843" data-name="Path 9843" d="M303.394,378.656c0,.107-27.6.186-61.628.186s-61.635-.079-61.635-.186,27.59-.186,61.635-.186S303.394,378.556,303.394,378.656Z" transform="translate(-124.492 -238.721)" fill="#263238"/>
        <path id="Path_9844" data-name="Path 9844" d="M144.236,404.186c-.1,0-.186-5.162-.186-11.524s.086-11.532.186-11.532.186,5.155.186,11.532S144.336,404.186,144.236,404.186Z" transform="translate(-114.175 -239.096)" fill="#263238"/>
        <path id="Path_9845" data-name="Path 9845" d="M150.8,430.211c-.1,0-.186-7.262-.186-16.216s.086-16.216.186-16.216.186,7.255.186,16.216S150.888,430.211,150.8,430.211Z" transform="translate(-116.051 -243.857)" fill="#263238"/>
      </g>
      <g id="Cloud_1" data-name="Cloud 1" transform="translate(0 79.744)">
        <path id="Path_9846" data-name="Path 9846" d="M29.142,150.23v7.4H26.6l5.477,6.383,5.141-6.255h-2.6V150.23Z" transform="translate(-7.297 -122.694)" fill="#567aff"/>
        <path id="Path_9847" data-name="Path 9847" d="M29.142,150.23v7.4H26.6l5.477,6.383,5.141-6.255h-2.6V150.23Z" transform="translate(-7.297 -122.694)" fill="#128179"/>
        <path id="Path_9848" data-name="Path 9848" d="M71.326,160.575a14.716,14.716,0,0,0-25.748-5.519,13.179,13.179,0,0,0-1.428-.086,12.239,12.239,0,1,0,0,24.47H70.805a9.44,9.44,0,0,0,.521-18.865Z" transform="translate(-31.617 -149.526)" fill="#28a79e"/>
        <path id="Path_9849" data-name="Path 9849" d="M91.17,182.9c0-.05.486-.393,1.171-1.1a9.133,9.133,0,0,0,2.035-3.22,9.283,9.283,0,0,0,.5-3.777c-.079-.985-.257-1.585-.2-1.6a3.9,3.9,0,0,1,.457,1.571,8.2,8.2,0,0,1-2.606,7.212A3.92,3.92,0,0,1,91.17,182.9Z" transform="translate(-48.647 -156.296)" fill="#263238"/>
        <path id="Path_9850" data-name="Path 9850" d="M47.475,162.106c0,.064-.714-.086-1.778-.1a9.832,9.832,0,0,0-7.526,3.292c-.714.807-1.071,1.428-1.121,1.371a4.52,4.52,0,0,1,.921-1.542,9.182,9.182,0,0,1,7.74-3.385,4.613,4.613,0,0,1,1.764.364Z" transform="translate(-33.17 -153.014)" fill="#263238"/>
        <path id="Path_9851" data-name="Path 9851" d="M60.532,153.779a10.75,10.75,0,0,1-1.228.321,8.568,8.568,0,0,0-2.692,1.307,8.753,8.753,0,0,0-2.078,2.142,9.543,9.543,0,0,1-.714,1.071,2.9,2.9,0,0,1,.464-1.207,7.233,7.233,0,0,1,2.078-2.321,7.312,7.312,0,0,1,2.856-1.264A2.856,2.856,0,0,1,60.532,153.779Z" transform="translate(-37.966 -150.727)" fill="#263238"/>
        <path id="Path_9852" data-name="Path 9852" d="M72.833,191.186c0,.1-3.57.186-8.033.186s-8.04-.086-8.04-.186,3.6-.186,8.026-.186S72.833,191.079,72.833,191.186Z" transform="translate(-38.807 -161.386)" fill="#263238"/>
        <path id="Path_9853" data-name="Path 9853" d="M80.447,216.85a59.1,59.1,0,0,1-.186-6.576,59.174,59.174,0,0,1,.186-6.583,57.178,57.178,0,0,1,.186,6.583A57.12,57.12,0,0,1,80.447,216.85Z" transform="translate(-45.521 -165.015)" fill="#263238"/>
        <path id="Path_9854" data-name="Path 9854" d="M84.056,223.391c-.1,0-.186-3.8-.186-8.476s.086-8.476.186-8.476.186,3.8.186,8.476S84.163,223.391,84.056,223.391Z" transform="translate(-46.559 -165.801)" fill="#263238"/>
      </g>
      <g id="Character" transform="translate(90.841 40.88)">
        <g id="Group_3975" data-name="Group 3975" transform="translate(0 95.386)" opacity="0.3">
          <path id="Path_9855" data-name="Path 9855" d="M318.512,270.11c-1.428-8.147-12.231-16.423-21.542-14.559-8.111,1.614-16.844,3.5-24.863,5.527-3.313.835-6.74-3.185-9.511-5.177a13.177,13.177,0,0,1-3.22-4.284c-5.162-8.775-13.659-15.359-23.149-19.036s-19.929-4.556-30.047-3.449c-7.854.864-16.423,3.57-20.1,10.568-1.471,2.82-2.056,6.2-4.334,8.418-3.042,2.942-7.854,2.706-11.817,4.2C162,255.3,157.99,266.632,158.99,275.036s8.476,19.236,24.191,20.964c0,0,56.93.5,85.041,1.864,9.747.471,12.688-.871,22.435-1.128C307.859,296.322,321.082,285.054,318.512,270.11Z" transform="translate(-158.839 -228.685)"/>
        </g>
        <path id="Path_9856" data-name="Path 9856" d="M231.389,339.449a12.123,12.123,0,0,0,2.856-1.757q3.042-1.956,6.019-4.02c-7.14-2.071-13.174-3.706-20.3-5.712a24.148,24.148,0,0,0,.785,8.5c.657,2.206,1.914,4.556,4.141,5.141,2.021.528,4.077-.585,5.862-1.685l.493-.307" transform="translate(-176.294 -161.688)" fill="#e0e0e0"/>
        <path id="Path_9857" data-name="Path 9857" d="M237.341,336.931c-.107,0-.064-.935-.314-2.028s-.714-1.906-.586-1.964A4.342,4.342,0,0,1,237.341,336.931Z" transform="translate(-181.024 -163.112)" fill="#263238"/>
        <path id="Path_9858" data-name="Path 9858" d="M239.726,336.725a12.089,12.089,0,0,1-.114-1.6,11.434,11.434,0,0,1-.221-1.585A3.213,3.213,0,0,1,239.726,336.725Z" transform="translate(-181.874 -163.284)" fill="#263238"/>
        <path id="Path_9859" data-name="Path 9859" d="M226.507,329.82c.064,0-.143.714-.157,1.935a8.818,8.818,0,0,0,1.121,4.434,11.653,11.653,0,0,0,2.913,3.57,10.894,10.894,0,0,0,1.692.921,1.243,1.243,0,0,1-.528-.086,4.826,4.826,0,0,1-1.314-.621,10.71,10.71,0,0,1-3.092-3.606,8.376,8.376,0,0,1-1.05-4.627,6.825,6.825,0,0,1,.221-1.428A1.386,1.386,0,0,1,226.507,329.82Z" transform="translate(-178.067 -162.22)" fill="#455a64"/>
        <path id="Path_9860" data-name="Path 9860" d="M234.474,332.13a12.609,12.609,0,0,1,1.157,4.191,12.474,12.474,0,0,1,0,4.327c-.114,0-.036-1.935-.357-4.284S234.36,332.166,234.474,332.13Z" transform="translate(-180.464 -162.881)" fill="#455a64"/>
        <path id="Path_9861" data-name="Path 9861" d="M230.634,339.344a4.6,4.6,0,0,1-1.135-.914,10.218,10.218,0,0,1-2.142-2.8,6.2,6.2,0,0,1-.65-3.456,2.592,2.592,0,0,1,.471-1.385c.057,0-.157.536-.207,1.428a6.719,6.719,0,0,0,.714,3.27,12.716,12.716,0,0,0,1.985,2.785A7.4,7.4,0,0,1,230.634,339.344Z" transform="translate(-178.238 -162.498)" fill="#ff725e"/>
        <path id="Path_9862" data-name="Path 9862" d="M244.118,337.35a11.931,11.931,0,0,1-2.513,1.564,12.274,12.274,0,0,1-2.685,1.242,11.427,11.427,0,0,1,2.513-1.571A11.961,11.961,0,0,1,244.118,337.35Z" transform="translate(-181.739 -164.374)" fill="#ff725e"/>
        <path id="Path_9863" data-name="Path 9863" d="M228.378,342.907a5.162,5.162,0,0,1-4.748,1.585c0-.107,1.15-.086,2.463-.536S228.314,342.821,228.378,342.907Z" transform="translate(-177.367 -165.961)" fill="#455a64"/>
        <path id="Path_9864" data-name="Path 9864" d="M225.314,337.772c0,.107-.964.243-2.035.714s-1.821,1.128-1.9,1.05a3.5,3.5,0,0,1,1.742-1.385A3.42,3.42,0,0,1,225.314,337.772Z" transform="translate(-176.724 -164.482)" fill="#455a64"/>
        <path id="Path_9865" data-name="Path 9865" d="M224.311,332.8a20.615,20.615,0,0,0-2.349-.657,23.564,23.564,0,0,0-2.442,0,3.692,3.692,0,0,1,2.492-.35A3.571,3.571,0,0,1,224.311,332.8Z" transform="translate(-176.192 -162.763)" fill="#455a64"/>
        <path id="Path_9866" data-name="Path 9866" d="M290.485,313.464c.043.064-26.783,6.533-26.783,6.533l-3.941-9.232,1.807-2.792s11.339-2.563,20.564-7.783Z" transform="translate(-187.699 -153.747)" fill="#ffbe9d"/>
        <path id="Path_9867" data-name="Path 9867" d="M203.283,279.5s-1.228-1.792-6.426-4.341c-4.32-2.142-15.409-3.884-19.9,4.791s-1.042,21.985,6.426,24.827,19.9,6.733,24.991,8.376,21.835,5.834,21.835,5.834l6.883-4.034.814-12.853s-9.49-9.747-17.565-12.438S203.283,279.5,203.283,279.5Z" transform="translate(-163.447 -146.09)" fill="#263238"/>
        <path id="Path_9868" data-name="Path 9868" d="M192.93,268.467a42.123,42.123,0,0,1,13.117,2.185c2.071.778,4.1,1.614,4.1,1.614l3.042-8.668,22.8-7.6h25.241l8.211,16.266v.821s9.861.164,14.131-1.806,17.572-7.726,21.021-8.875,18.893-3.356,22.342,6.041,1.007,19.2-4.763,22.785c-2.72,1.685-48.619,13.567-48.619,13.567l-10.846-17.251s-16.523,8.19-22.056,7.3S192.93,268.467,192.93,268.467Z" transform="translate(-168.588 -141.11)" fill="#263238"/>
        <path id="Path_9869" data-name="Path 9869" d="M258.13,261.87a1.874,1.874,0,0,1,.114.336c.064.257.15.578.25.964.207.843.471,2.078.714,3.606.557,3.056,1.114,7.319,1.542,12.039s.657,9,.75,12.139c.05,1.549.064,2.806.064,3.677v1a1.049,1.049,0,0,1,0,.35,2.326,2.326,0,0,1-.043-.35,7.606,7.606,0,0,0-.05-1c-.05-.921-.107-2.142-.186-3.663-.157-3.1-.436-7.376-.857-12.1s-.943-8.961-1.428-12.024c-.236-1.528-.464-2.763-.628-3.613-.071-.393-.136-.714-.186-.985A1.17,1.17,0,0,1,258.13,261.87Z" transform="translate(-187.233 -142.789)" fill="#455a64"/>
        <path id="Path_9870" data-name="Path 9870" d="M289.461,280.485c0,.1-5.712.821-12.788,1.607s-12.81,1.342-12.853,1.235,5.712-.821,12.788-1.607S289.447,280.385,289.461,280.485Z" transform="translate(-188.86 -148.109)" fill="#455a64"/>
        <path id="Path_9871" data-name="Path 9871" d="M286.194,280.125a3.323,3.323,0,0,1-.814-.064c-.521-.071-1.271-.164-2.206-.257a58.417,58.417,0,0,0-7.3-.336,60.042,60.042,0,0,0-7.283.586l-2.192.336a4.017,4.017,0,0,1-.814.1,3.2,3.2,0,0,1,.785-.236c.507-.136,1.25-.293,2.178-.457a47.369,47.369,0,0,1,14.666-.257c.928.136,1.678.264,2.192.378A4.1,4.1,0,0,1,286.194,280.125Z" transform="translate(-189.363 -147.713)" fill="#455a64"/>
        <path id="Path_9872" data-name="Path 9872" d="M295.3,278.159a25.793,25.793,0,0,0-4.891-1.814,25.3,25.3,0,0,0-5.205-.407,4.6,4.6,0,0,1,1.535-.257,13.724,13.724,0,0,1,7.276,1.607,4.9,4.9,0,0,1,1.285.871Z" transform="translate(-194.974 -146.732)" fill="#455a64"/>
        <path id="Path_9873" data-name="Path 9873" d="M267.913,298.927a5.869,5.869,0,0,1-2.313,1.428,5.712,5.712,0,0,1-2.649.564c0-.107,1.15-.364,2.506-.914S267.848,298.841,267.913,298.927Z" transform="translate(-188.611 -153.383)" fill="#455a64"/>
        <path id="Path_9874" data-name="Path 9874" d="M266.653,303.41a5.712,5.712,0,0,1-3.863.557,8.716,8.716,0,0,1,1.928-.307,9.076,9.076,0,0,1,1.935-.25Z" transform="translate(-188.565 -154.668)" fill="#455a64"/>
        <path id="Path_9875" data-name="Path 9875" d="M308.6,278.28a2.024,2.024,0,0,1-.336.229l-.993.593-3.7,2.142-12.267,6.9-12.324,6.8-3.756,2.028-1.035.536a2.291,2.291,0,0,1-.371.164,1.782,1.782,0,0,1,.336-.228l1-.6,3.7-2.142,12.267-6.9,12.324-6.8,3.756-2.021,1.028-.536a1.336,1.336,0,0,1,.371-.164Z" transform="translate(-191.72 -147.481)" fill="#455a64"/>
        <path id="Path_9876" data-name="Path 9876" d="M332.625,273.19a3.234,3.234,0,0,1-.464.114l-1.328.271c-1.157.243-2.82.628-4.848,1.2a87.211,87.211,0,0,0-15.28,6.062c-5.755,2.856-10.71,5.926-14.338,8.119l-4.284,2.613-1.171.714a3.012,3.012,0,0,1-.421.221,2.332,2.332,0,0,1,.386-.286l1.128-.757c.985-.65,2.413-1.585,4.2-2.713,3.57-2.256,8.568-5.334,14.316-8.233a81.532,81.532,0,0,1,15.373-5.984c2.049-.543,3.727-.885,4.891-1.078.578-.114,1.035-.164,1.342-.207A2,2,0,0,1,332.625,273.19Z" transform="translate(-196.487 -146.026)" fill="#455a64"/>
        <path id="Path_9877" data-name="Path 9877" d="M359.755,268.534a18.8,18.8,0,0,1-2.142,0,21.662,21.662,0,0,0-5.12.771,21.954,21.954,0,0,0-4.784,1.971c-1.164.657-1.835,1.142-1.871,1.092s.136-.164.428-.4a12.609,12.609,0,0,1,1.307-.914,18.344,18.344,0,0,1,4.82-2.106,18.7,18.7,0,0,1,5.212-.678,12.854,12.854,0,0,1,1.592.114A2,2,0,0,1,359.755,268.534Z" transform="translate(-212.313 -144.618)" fill="#455a64"/>
        <path id="Path_9878" data-name="Path 9878" d="M356.358,272.686c0,.107-1.914-.143-4.284-.057s-4.213.457-4.234.35a12.139,12.139,0,0,1,4.22-.714,12.267,12.267,0,0,1,4.3.421Z" transform="translate(-212.887 -145.75)" fill="#455a64"/>
        <path id="Path_9879" data-name="Path 9879" d="M345.508,268.79c.05.1-1.592.971-3.42,2.335s-3.149,2.678-3.227,2.6a11.909,11.909,0,0,1,3.006-2.9A12.138,12.138,0,0,1,345.508,268.79Z" transform="translate(-210.319 -144.768)" fill="#455a64"/>
        <path id="Path_9880" data-name="Path 9880" d="M359.094,280.2q-.036.077-.079.15l-.236.421c-.221.378-.55.914-1.028,1.578a22.992,22.992,0,0,1-4.805,5,46.086,46.086,0,0,1-8.854,5.191c-3.513,1.621-7.519,3.049-11.717,4.52l-21.521,7.533-6.541,2.235-1.778.593-.471.15a.543.543,0,0,1-.164.036l.15-.071.457-.186,1.764-.657,6.5-2.349,21.485-7.633c4.2-1.471,8.2-2.856,11.7-4.484a47.333,47.333,0,0,0,8.833-5.084,24.471,24.471,0,0,0,4.877-4.87c.486-.65.843-1.178,1.078-1.535l.271-.407A1.077,1.077,0,0,1,359.094,280.2Z" transform="translate(-199.75 -148.03)" fill="#455a64"/>
        <path id="Path_9881" data-name="Path 9881" d="M241.464,322.49a4.463,4.463,0,0,1-.521-.186l-1.471-.593c-1.271-.521-3.106-1.3-5.355-2.292-4.506-1.978-10.711-4.805-17.422-8.1s-12.76-6.426-17.023-8.925c-2.142-1.228-3.827-2.271-5-3.02l-1.321-.878a2.738,2.738,0,0,1-.443-.328,3.431,3.431,0,0,1,.486.264l1.35.821c1.178.714,2.892,1.721,5.041,2.906,4.284,2.406,10.325,5.519,17.058,8.825s12.9,6.155,17.365,8.19l5.32,2.435,1.428.65a2.742,2.742,0,0,1,.507.229Z" transform="translate(-168.582 -153.169)" fill="#455a64"/>
        <path id="Path_9882" data-name="Path 9882" d="M195.41,278.952a2.507,2.507,0,0,1,.635-.407,13.06,13.06,0,0,1,1.871-.814,14.994,14.994,0,0,1,6.683-.714,18.565,18.565,0,0,1,6.469,1.842,8.8,8.8,0,0,1,1.685,1.157,2.513,2.513,0,0,1,.521.535,21.249,21.249,0,0,0-2.328-1.464,20.3,20.3,0,0,0-6.426-1.7,15.865,15.865,0,0,0-6.548.571C196.367,278.481,195.439,279.016,195.41,278.952Z" transform="translate(-169.297 -147.09)" fill="#455a64"/>
        <path id="Path_9883" data-name="Path 9883" d="M249.936,303.637a1.429,1.429,0,0,1-.336-.257l-.914-.778c-.793-.714-1.964-1.642-3.42-2.813-2.913-2.335-7.026-5.462-11.56-8.925l-3.3-2.535c-1.078-.8-2.142-1.485-3.227-2.142-2.142-1.264-4.07-2.342-5.619-3.406a22.359,22.359,0,0,1-3.449-2.8,11.522,11.522,0,0,1-.814-.885,1.658,1.658,0,0,1-.257-.336s.407.414,1.171,1.121a25.052,25.052,0,0,0,3.492,2.678c1.557,1.028,3.52,2.078,5.655,3.335,1.064.635,2.142,1.321,3.263,2.142s2.142,1.671,3.306,2.535c4.534,3.463,8.626,6.619,11.5,9.018,1.428,1.192,2.592,2.185,3.349,2.9.393.357.678.643.871.843A2.25,2.25,0,0,1,249.936,303.637Z" transform="translate(-175.483 -147.619)" fill="#455a64"/>
        <path id="Path_9884" data-name="Path 9884" d="M236.74,288.67a24.056,24.056,0,0,1,2.542.95c1.564.607,3.727,1.428,6.162,2.178s4.663,1.364,6.284,1.764a26.1,26.1,0,0,1,2.628.714,2.529,2.529,0,0,1-.714-.071c-.464-.064-1.135-.186-1.956-.357a63.281,63.281,0,0,1-6.341-1.671,64.647,64.647,0,0,1-6.148-2.285c-.764-.336-1.385-.621-1.807-.828A3.306,3.306,0,0,1,236.74,288.67Z" transform="translate(-181.116 -150.453)" fill="#455a64"/>
        <path id="Path_9885" data-name="Path 9885" d="M240.811,279.8a21.938,21.938,0,0,1-2.563.443c-1.585.236-3.777.571-6.184,1s-4.577.878-6.148,1.207a19.986,19.986,0,0,1-2.556.471,2.724,2.724,0,0,1,.657-.236c.428-.129,1.057-.3,1.835-.493,1.564-.393,3.727-.878,6.148-1.314s4.613-.714,6.212-.9c.8-.086,1.428-.143,1.9-.171a2.4,2.4,0,0,1,.7-.007Z" transform="translate(-177.29 -147.91)" fill="#455a64"/>
        <path id="Path_9886" data-name="Path 9886" d="M236.366,273.924c0,.057-.985.143-2.556.378a40.349,40.349,0,0,0-11.839,3.67,22.518,22.518,0,0,1-2.321,1.135,2.478,2.478,0,0,1,.564-.407c.371-.25.928-.578,1.635-.964a33.131,33.131,0,0,1,5.791-2.413,33.779,33.779,0,0,1,6.134-1.285c.8-.086,1.428-.129,1.892-.136A2.235,2.235,0,0,1,236.366,273.924Z" transform="translate(-176.229 -146.225)" fill="#455a64"/>
        <path id="Path_9887" data-name="Path 9887" d="M281.524,322.392l-4.284,10c1.578,1.428,7.576,2.342,9.689,2.235s5.17-.086,7.276-.321a46.075,46.075,0,0,1,8.061.057,35.7,35.7,0,0,0,8.054-.15,13,13,0,0,0,7.14-3.413,7.4,7.4,0,0,0-2.206-12.446,13.117,13.117,0,0,0-6.833-.935,37.9,37.9,0,0,0-6.8,1.542,19.7,19.7,0,0,1-7.283,1.214,10.421,10.421,0,0,1-1.492-.114c-3.227-.6-6.591-.628-9.5,1.2C282.781,321.621,282.131,321.943,281.524,322.392Z" transform="translate(-192.698 -158.641)" fill="#e0e0e0"/>
        <path id="Path_9888" data-name="Path 9888" d="M284.11,324.478a2.7,2.7,0,0,1,.378-.357,8.8,8.8,0,0,1,1.228-.85,8.94,8.94,0,0,1,5.32-1.15c1.157.114,2.4.35,3.742.55a16.787,16.787,0,0,0,4.284.207,25.7,25.7,0,0,0,4.627-1.064,23.35,23.35,0,0,1,5.055-1.071,14.282,14.282,0,0,1,5.155.443,12.092,12.092,0,0,1,2.3.928,6.812,6.812,0,0,1,1.9,1.428,8.633,8.633,0,0,1,2.049,3.863,4.662,4.662,0,0,1,.064,2.006,5.333,5.333,0,0,1-.714,1.721,7.041,7.041,0,0,1-2.221,2.213,12.588,12.588,0,0,1-2.106,1.078c-.6.25-1.071.414-1.392.528a2.278,2.278,0,0,1-.5.143,3,3,0,0,1,.471-.214c.314-.136.778-.321,1.364-.586a14.523,14.523,0,0,0,2.049-1.121A6.855,6.855,0,0,0,319.269,331a4.5,4.5,0,0,0,.55-3.527,8.432,8.432,0,0,0-2-3.692,8.761,8.761,0,0,0-4.049-2.263,14.145,14.145,0,0,0-5-.428c-3.484.257-6.576,1.849-9.675,2.142a16.966,16.966,0,0,1-4.356-.243c-1.342-.221-2.578-.471-3.72-.6A9.168,9.168,0,0,0,285.8,323.4,18.812,18.812,0,0,0,284.11,324.478Z" transform="translate(-194.662 -159.606)" fill="#455a64"/>
        <path id="Path_9889" data-name="Path 9889" d="M323.9,335.319a3.128,3.128,0,0,1-.386-.436,4.825,4.825,0,0,1-.393-.557,6.981,6.981,0,0,1-.45-.785,12.816,12.816,0,0,1-.892-2.178,15.6,15.6,0,0,1-.571-2.856,16.373,16.373,0,0,1,0-2.892,12.988,12.988,0,0,1,.436-2.313,7.191,7.191,0,0,1,.286-.864,5.059,5.059,0,0,1,.264-.628c.171-.336.271-.514.293-.5s-.286.771-.586,2.056a13.953,13.953,0,0,0-.35,2.278,18.851,18.851,0,0,0,.043,2.82,18.516,18.516,0,0,0,.536,2.77,14.519,14.519,0,0,0,.8,2.142C323.446,334.655,323.939,335.283,323.9,335.319Z" transform="translate(-205.252 -159.786)" fill="#263238"/>
        <path id="Path_9890" data-name="Path 9890" d="M286.637,322.468c.093.05,0,.421-.207.85s-.371.771-.471.714-.057-.428.129-.878S286.552,322.418,286.637,322.468Z" transform="translate(-195.176 -160.116)" fill="#455a64"/>
        <path id="Path_9891" data-name="Path 9891" d="M290.963,320.808c.093.043,0,.407-.121.835s-.3.771-.4.714-.1-.414.043-.864S290.87,320.765,290.963,320.808Z" transform="translate(-196.453 -159.642)" fill="#455a64"/>
        <path id="Path_9892" data-name="Path 9892" d="M296.439,320.7c.093.036.043.457-.114.943s-.371.857-.464.821-.05-.45.107-.935S296.339,320.671,296.439,320.7Z" transform="translate(-198.009 -159.612)" fill="#455a64"/>
        <path id="Path_9893" data-name="Path 9893" d="M301.613,321.349c.1,0,.064.45-.079.943s-.343.871-.436.843-.064-.45.079-.95S301.513,321.321,301.613,321.349Z" transform="translate(-199.505 -159.797)" fill="#455a64"/>
        <path id="Path_9894" data-name="Path 9894" d="M306.108,323.181c-.1,0-.186-.5-.179-1.114s.086-1.107.193-1.107.179.5.179,1.107S306.208,323.181,306.108,323.181Z" transform="translate(-200.902 -159.686)" fill="#455a64"/>
        <path id="Path_9895" data-name="Path 9895" d="M310.849,322.031c-.107,0-.25-.428-.328-.985s-.057-1.021.043-1.035.25.428.328.985S310.964,322.016,310.849,322.031Z" transform="translate(-202.201 -159.415)" fill="#455a64"/>
        <path id="Path_9896" data-name="Path 9896" d="M315.43,318.47c.1,0,.264.4.364.935s.1.985,0,1-.264-.4-.364-.935S315.33,318.484,315.43,318.47Z" transform="translate(-203.597 -158.974)" fill="#455a64"/>
        <path id="Path_9897" data-name="Path 9897" d="M320.981,317.41c.1,0,.057.607-.086,1.307s-.357,1.257-.457,1.235-.057-.607.093-1.307S320.881,317.388,320.981,317.41Z" transform="translate(-205.036 -158.671)" fill="#455a64"/>
        <path id="Path_9898" data-name="Path 9898" d="M325.577,317.549c.093.043-.157.714-.564,1.428s-.807,1.328-.893,1.278a3.441,3.441,0,0,1,.564-1.428C325.084,318.078,325.462,317.506,325.577,317.549Z" transform="translate(-206.104 -158.71)" fill="#455a64"/>
        <path id="Path_9899" data-name="Path 9899" d="M330.478,318.868a3.88,3.88,0,0,1-.714,1.471c-.471.757-.964,1.328-1.05,1.271a3.878,3.878,0,0,1,.714-1.471C329.9,319.383,330.393,318.811,330.478,318.868Z" transform="translate(-207.414 -159.087)" fill="#455a64"/>
        <path id="Path_9900" data-name="Path 9900" d="M333.739,321.908c.078.057-.236.65-.714,1.328s-.921,1.178-1,1.121.228-.657.714-1.335S333.653,321.844,333.739,321.908Z" transform="translate(-208.361 -159.956)" fill="#455a64"/>
        <path id="Path_9901" data-name="Path 9901" d="M335.915,325.768c.086.057-.236.635-.778,1.235s-1.085.971-1.15.9.35-.564.878-1.15S335.83,325.7,335.915,325.768Z" transform="translate(-208.924 -161.06)" fill="#455a64"/>
        <path id="Path_9902" data-name="Path 9902" d="M335.834,331.654c.079.057-.1.407-.521.593s-.807.086-.793,0,.307-.179.643-.328S335.755,331.582,335.834,331.654Z" transform="translate(-209.078 -162.74)" fill="#455a64"/>
        <path id="Path_9903" data-name="Path 9903" d="M333,336.629a.186.186,0,0,1-.221.193.17.17,0,0,1-.143-.257.257.257,0,0,1,.207-.114A.25.25,0,0,1,333,336.629Z" transform="translate(-208.532 -164.116)" fill="#455a64"/>
        <path id="Path_9904" data-name="Path 9904" d="M298.29,335.922a16.423,16.423,0,0,0,1.164-3.342,16.591,16.591,0,0,0,.071-3.57,7.026,7.026,0,0,1-1.235,6.883Z" transform="translate(-198.717 -161.988)" fill="#263238"/>
        <path id="Path_9905" data-name="Path 9905" d="M302.41,335.675a14.738,14.738,0,0,0,1.071-3.085,14.217,14.217,0,0,0,0-3.27,6.126,6.126,0,0,1-1.064,6.355Z" transform="translate(-199.896 -162.077)" fill="#263238"/>
        <path id="Path_9906" data-name="Path 9906" d="M307.6,335.5a9.475,9.475,0,0,0,1.271-6.876,2.271,2.271,0,0,1,.371,1.014,6.884,6.884,0,0,1,0,2.613,6.712,6.712,0,0,1-.95,2.435C307.943,335.246,307.636,335.525,307.6,335.5Z" transform="translate(-201.38 -161.877)" fill="#263238"/>
        <path id="Path_9907" data-name="Path 9907" d="M313.46,335.095a18.964,18.964,0,0,0,.964-3.434,19.714,19.714,0,0,0-.071-3.57,7.469,7.469,0,0,1-.893,7.012Z" transform="translate(-203.055 -161.725)" fill="#263238"/>
        <path id="Path_9908" data-name="Path 9908" d="M295.306,331.339a1.143,1.143,0,0,1-.607.086,3.357,3.357,0,0,1-1.592-.521,7.09,7.09,0,0,1-1.771-1.714,4.32,4.32,0,0,1-.771-1.278,1.728,1.728,0,0,1-.064-.835,1.328,1.328,0,0,1,.443-.771,1.763,1.763,0,0,1,1.628-.307,3.114,3.114,0,0,1,1.278.807,5.862,5.862,0,0,1,1.335,2.085,5.484,5.484,0,0,1,.35,1.621,1.428,1.428,0,0,1-.036.607,10.481,10.481,0,0,0-.557-2.142,5.946,5.946,0,0,0-1.335-1.935,2.742,2.742,0,0,0-1.135-.714,1.428,1.428,0,0,0-1.285.243,1.1,1.1,0,0,0-.271,1.214,4.026,4.026,0,0,0,.714,1.178,7.21,7.21,0,0,0,1.642,1.7A3.82,3.82,0,0,0,295.306,331.339Z" transform="translate(-196.483 -161.104)" fill="#263238"/>
        <path id="Path_9909" data-name="Path 9909" d="M294.887,333.343a1.613,1.613,0,0,1-.136.543,8.393,8.393,0,0,1-.614,1.428,4.17,4.17,0,0,1-1.585,1.671,2.856,2.856,0,0,1-1.357.371,1.614,1.614,0,0,1-1.428-.678,1.428,1.428,0,0,1,.157-1.542,2.856,2.856,0,0,1,1.071-.9,8.217,8.217,0,0,1,2.2-.628,10.911,10.911,0,0,1,2.056-.307,12.084,12.084,0,0,1-2,.564,9.131,9.131,0,0,0-2.1.678,2.549,2.549,0,0,0-.928.8,1.085,1.085,0,0,0-.136,1.142,1.278,1.278,0,0,0,1.071.507,2.505,2.505,0,0,0,1.192-.307,4.177,4.177,0,0,0,1.528-1.507A20.1,20.1,0,0,1,294.887,333.343Z" transform="translate(-196.235 -163.215)" fill="#263238"/>
        <path id="Path_9910" data-name="Path 9910" d="M296.585,336.453c-.086-.071.328-.621.45-1.428a14.689,14.689,0,0,0,0-1.485,1.671,1.671,0,0,1,.343,1.549C297.257,336.011,296.643,336.532,296.585,336.453Z" transform="translate(-198.227 -163.284)" fill="#263238"/>
        <path id="Path_9911" data-name="Path 9911" d="M298.374,330.629c.093,0,0,.571-.307,1.157s-.714.957-.793.9.171-.521.464-1.071S298.274,330.594,298.374,330.629Z" transform="translate(-198.423 -162.451)" fill="#263238"/>
        <path id="Path_9912" data-name="Path 9912" d="M310.152,323.19a6.1,6.1,0,0,1-1.585.75,20.486,20.486,0,0,1-8.361,1.257,6.341,6.341,0,0,1-1.735-.25,46.431,46.431,0,0,0,5.926-.307A45.47,45.47,0,0,0,310.152,323.19Z" transform="translate(-198.769 -160.324)" fill="#ff725e"/>
        <path id="Path_9913" data-name="Path 9913" d="M309.2,339.378a20.622,20.622,0,0,1-3.92.457,21.248,21.248,0,0,1-3.941.086,20.622,20.622,0,0,1,3.92-.457A21.259,21.259,0,0,1,309.2,339.378Z" transform="translate(-199.59 -164.938)" fill="#ff725e"/>
        <path id="Path_9914" data-name="Path 9914" d="M324.905,334.912a6.313,6.313,0,0,0,2.513-.928,5.541,5.541,0,0,0,1.871-2.178,5.712,5.712,0,0,0,.386-3.456,6.426,6.426,0,0,0-1.585-3.135,7.482,7.482,0,0,0-2.356-1.685,13.427,13.427,0,0,0-2.613-.764,2.1,2.1,0,0,1,.75,0,7.471,7.471,0,0,1,1.964.507,7.3,7.3,0,0,1,2.506,1.692,6.583,6.583,0,0,1,1.7,3.3,5.877,5.877,0,0,1-.443,3.677,5.633,5.633,0,0,1-2.035,2.249,5,5,0,0,1-1.914.714,1.991,1.991,0,0,1-.743.007Z" transform="translate(-205.818 -160.193)" fill="#ff725e"/>
        <path id="Path_9915" data-name="Path 9915" d="M260.6,315.21l18.565,8.247a14.7,14.7,0,0,1-1.142,6.9c-1.357,2.785-5.477,2.228-5.477,2.228l-16.337-3.8,3.642-2.142Z" transform="translate(-186.684 -158.042)" fill="#ffbe9d"/>
        <path id="Path_9916" data-name="Path 9916" d="M284.422,335.053a11.348,11.348,0,0,1-2-1.785,3.827,3.827,0,0,1-.942-2.449,5.1,5.1,0,0,1,.8-2.278,3.956,3.956,0,0,1,1.849-1.9,4.08,4.08,0,0,1,3.149.55l.193,4.141Z" transform="translate(-193.91 -161.269)" fill="#e0e0e0"/>
        <path id="Path_9917" data-name="Path 9917" d="M280.953,323.459c-.043.093-4.234-1.678-9.368-3.956s-9.282-4.2-9.225-4.284,4.241,1.671,9.375,3.949S281,323.359,280.953,323.459Z" transform="translate(-188.442 -158.044)" fill="#eb996e"/>
        <path id="Path_9918" data-name="Path 9918" d="M284.531,205.55a1.357,1.357,0,0,0,1.428-1.292c.207-5.869-3.663-19.165-5.52-24.684-1.135-3.37-5-5.834-7.654-7.647-3.242-2.192-14.7-4.877-18.479-5.919h-1.271L235.477,164.7l-9.647,4.62s-13.374,5.07-17.251,12.139-6.826,27.726-6.826,27.726-1.778,5.905,0,8.568c1.107,1.664,5.227,3.106,8.933,3.813-2.006,6.683-.421,11.646-.493,12.5-.15,1.757-1.5,5.848,1.664,5.6s27.9-6.783,35.245-7.076a34.659,34.659,0,0,1,17.808,4.37c3.706,2.078,3.677,2.228,5-1.428s-2.9-7.776-2.9-7.776,3.784-13.674,5.548-22.613Z" transform="translate(-170.885 -115.001)" fill="#ed5929"/>
        <path id="Path_9919" data-name="Path 9919" d="M229.124,205.9a5.8,5.8,0,0,1-.557-.593c-.336-.4-.864-1.021-1.428-1.692a49.182,49.182,0,0,0-5-5.234,23.761,23.761,0,0,0-3.2-2.371,17.85,17.85,0,0,0-2.906-1.428c-1.735-.657-2.856-.821-2.856-.893a3.221,3.221,0,0,1,.807.086,6.983,6.983,0,0,1,.935.2,9.762,9.762,0,0,1,1.214.364,16.544,16.544,0,0,1,3,1.392,22.683,22.683,0,0,1,3.263,2.378,40.1,40.1,0,0,1,5,5.355c.578.714,1.035,1.342,1.335,1.771A4.179,4.179,0,0,1,229.124,205.9Z" transform="translate(-174.379 -123.291)" fill="#263238"/>
        <path id="Path_9920" data-name="Path 9920" d="M222.43,236.894a3.99,3.99,0,0,1-.864.064c-.557,0-1.364.036-2.363,0a57.031,57.031,0,0,1-7.762-.578,34.331,34.331,0,0,1-7.519-1.942,21.1,21.1,0,0,1-2.142-.964,3.528,3.528,0,0,1-.75-.436c0-.057,1.128.486,3,1.157a40.509,40.509,0,0,0,7.5,1.842,76.021,76.021,0,0,0,7.712.678l2.356.093A3.851,3.851,0,0,1,222.43,236.894Z" transform="translate(-170.904 -134.543)" fill="#263238"/>
        <path id="Path_9921" data-name="Path 9921" d="M278.413,247.82a1.921,1.921,0,0,1-.257.536,14.564,14.564,0,0,1-.878,1.335,19.43,19.43,0,0,1-8.233,6.426,12.364,12.364,0,0,1-1.514.528,1.979,1.979,0,0,1-.571.121c0-.064.764-.328,1.978-.885a23.7,23.7,0,0,0,4.434-2.706,23.264,23.264,0,0,0,3.7-3.649A13.916,13.916,0,0,1,278.413,247.82Z" transform="translate(-189.758 -138.771)" fill="#263238"/>
        <path id="Path_9922" data-name="Path 9922" d="M279.654,255.5a4.234,4.234,0,0,1-1.164.921A15.289,15.289,0,0,1,275.277,258a15.848,15.848,0,0,1-3.492.8,4.358,4.358,0,0,1-1.485,0,24.141,24.141,0,0,0,9.354-3.3Z" transform="translate(-190.713 -140.967)" fill="#263238"/>
        <path id="Path_9923" data-name="Path 9923" d="M309.134,185.53a2.14,2.14,0,0,1-.086.607,15.336,15.336,0,0,1-.421,1.607,24.38,24.38,0,0,1-2.206,5,25.055,25.055,0,0,1-3.27,4.4c-.478.507-.885.9-1.185,1.157s-.464.393-.486.371.571-.65,1.478-1.707a30.423,30.423,0,0,0,3.142-4.406,30.115,30.115,0,0,0,2.278-4.913C308.849,186.351,309.077,185.516,309.134,185.53Z" transform="translate(-199.629 -120.958)" fill="#263238"/>
        <path id="Path_9924" data-name="Path 9924" d="M313.779,217.325a7.591,7.591,0,0,1-1.728.136h-4.177a37.828,37.828,0,0,1-4.17-.286,7.62,7.62,0,0,1-1.714-.271,8.912,8.912,0,0,1,1.728,0l4.17.178,4.163.143a8.509,8.509,0,0,1,1.728.1Z" transform="translate(-199.775 -129.918)" fill="#263238"/>
        <path id="Path_9925" data-name="Path 9925" d="M299,188.84a5.457,5.457,0,0,1,.243.943c.143.714.328,1.549.543,2.592a87.247,87.247,0,0,1,1.428,8.633,37.13,37.13,0,0,1-.043,8.761c-.164,1.107-.328,2-.486,2.606a5.567,5.567,0,0,1-.264.943,4.8,4.8,0,0,1,.121-.971c.114-.607.243-1.507.364-2.613a41.274,41.274,0,0,0-.064-8.69c-.378-3.377-.971-6.426-1.342-8.618-.193-1.1-.343-2-.428-2.613A4.282,4.282,0,0,1,299,188.84Z" transform="translate(-198.919 -121.905)" fill="#263238"/>
        <path id="Path_9926" data-name="Path 9926" d="M233.778,214.25a3.8,3.8,0,0,1-.05.828c-.057.528-.15,1.285-.271,2.221-.25,1.878-.628,4.47-1.15,7.312a64.092,64.092,0,0,1-1.685,7.212,19.478,19.478,0,0,1-.771,2.106,3.568,3.568,0,0,1-.393.714c-.057,0,.443-1.085.914-2.913s1.05-4.37,1.571-7.2.935-5.412,1.257-7.276q.221-1.307.386-2.206A3.457,3.457,0,0,1,233.778,214.25Z" transform="translate(-179.032 -129.171)" fill="#263238"/>
        <path id="Path_9927" data-name="Path 9927" d="M232.137,198.32a5.6,5.6,0,0,1,.714,1.428,26.453,26.453,0,0,1,1.857,7.347,5.39,5.39,0,0,1,0,1.571c-.114,0-.336-2.371-1.064-5.22S232.037,198.363,232.137,198.32Z" transform="translate(-179.798 -124.616)" fill="#263238"/>
        <path id="Path_9928" data-name="Path 9928" d="M258.893,221.212a2.859,2.859,0,0,1,.2-.407c.157-.286.371-.664.635-1.15l2.4-4.249c2.092-3.642,5-8.7,8.34-14.509l.236.25c-2.142,1.028-4.384,2.042-6.769,2.985a86.494,86.494,0,0,1-8.347,2.856l-.557.164.371-.45,10-12.139,2.928-3.5.793-.928a2.459,2.459,0,0,1,.293-.307,2.493,2.493,0,0,1-.243.35l-.75.957-2.856,3.57-9.911,12.246-.193-.286c2.628-.785,5.448-1.749,8.311-2.856,2.371-.943,4.641-1.949,6.748-2.963l.536-.257-.3.507L262.3,215.542l-2.492,4.2-.714,1.121A2.245,2.245,0,0,1,258.893,221.212Z" transform="translate(-186.346 -122.188)" fill="#fff"/>
        <g id="Group_3976" data-name="Group 3976" transform="translate(78.266 110.263)" opacity="0.3">
          <path id="Path_9929" data-name="Path 9929" d="M275.54,257.824c.843.221,2.456-2.328,3.392-3.891-2.856,1.585-5.612,3.484-8.811,2.792a11.21,11.21,0,0,0,7.712-7.2,18.458,18.458,0,0,1-9.382,7.319S274.205,257.474,275.54,257.824Z" transform="translate(-268.45 -249.52)"/>
        </g>
        <path id="Path_9930" data-name="Path 9930" d="M232.14,150.25a9.106,9.106,0,0,0,1.428.4,5.919,5.919,0,0,0,3.849-.378,4.6,4.6,0,0,0,1.942-1.807,3.449,3.449,0,0,0,.314-2.928,3.163,3.163,0,0,0-2.363-2.142,2.77,2.77,0,0,0-2.856,1.657,2.142,2.142,0,0,0,.064,1.714,2.856,2.856,0,0,0,1.214,1.221,3.22,3.22,0,0,0,1.628.421,4.005,4.005,0,0,0,1.592-.371,6.576,6.576,0,0,0,2.385-1.949,9.212,9.212,0,0,0,1.371-2.349,10.2,10.2,0,0,0,.714-3.884c0-.935-.121-1.428-.086-1.464a1.342,1.342,0,0,1,.1.371,8.219,8.219,0,0,1,.129,1.092,9.646,9.646,0,0,1-.65,3.977,9.4,9.4,0,0,1-1.371,2.449,6.79,6.79,0,0,1-2.485,2.064,4.37,4.37,0,0,1-1.728.421,3.627,3.627,0,0,1-1.814-.457,3.2,3.2,0,0,1-1.364-1.385,2.456,2.456,0,0,1-.079-2.006,3.113,3.113,0,0,1,3.242-1.878,3.463,3.463,0,0,1,2.628,2.356,3.784,3.784,0,0,1-.364,3.2,4.905,4.905,0,0,1-2.092,1.885,5.912,5.912,0,0,1-4.006.286,6.068,6.068,0,0,1-1.035-.364,1.612,1.612,0,0,1-.307-.15Z" transform="translate(-179.801 -107.478)" fill="#263238"/>
        <path id="Path_9931" data-name="Path 9931" d="M303.178,128.661a10.218,10.218,0,0,0-2.692-8.019,8.633,8.633,0,0,0-7.983-2.456,10.382,10.382,0,0,0-5.434,2.856,5.506,5.506,0,0,0-1.1,1.578c-.05.086-.093.178-.143.271s-.107.236-.157.357v.057h0a10.432,10.432,0,0,0-.628,6.426,9.832,9.832,0,0,0,6.426,7.062,9.147,9.147,0,0,0,9.182-2.371,9.768,9.768,0,0,0,2.528-5.762Z" transform="translate(-194.859 -101.648)" fill="#263238"/>
        <path id="Path_9932" data-name="Path 9932" d="M304.657,135.96c-.064,0-.193-.814-.714-2.035a11.217,11.217,0,0,0-7.4-6.6c-1.271-.357-2.142-.386-2.1-.457a1.785,1.785,0,0,1,.585,0,8.824,8.824,0,0,1,1.578.229,10.568,10.568,0,0,1,7.583,6.755,9.12,9.12,0,0,1,.407,1.542A1.742,1.742,0,0,1,304.657,135.96Z" transform="translate(-197.616 -104.176)" fill="#455a64"/>
        <path id="Path_9933" data-name="Path 9933" d="M301.5,131.709a5.941,5.941,0,0,1-.65,1.678,14.6,14.6,0,0,1-2.542,3.534,14.452,14.452,0,0,1-3.492,2.592,6.077,6.077,0,0,1-1.664.714,23.123,23.123,0,0,0,4.891-3.57A25.428,25.428,0,0,0,301.5,131.709Z" transform="translate(-197.247 -105.567)" fill="#455a64"/>
        <path id="Path_9934" data-name="Path 9934" d="M294.046,124.725c-.107-.064.75-1.428,1.428-3.256a15.394,15.394,0,0,0,.75-3.449,2.305,2.305,0,0,1,.129,1.057,7.917,7.917,0,0,1-.528,2.521A9.483,9.483,0,0,1,294.046,124.725Z" transform="translate(-197.501 -101.652)" fill="#ff725e"/>
        <path id="Path_9935" data-name="Path 9935" d="M276.64,176.32Z" transform="translate(-192.526 -118.324)" fill="#ffbe9d"/>
        <path id="Path_9936" data-name="Path 9936" d="M280.959,117.2a16.123,16.123,0,0,0-14.281-16.708,15.659,15.659,0,0,0-17.351,14.4L247.9,150.138a3.056,3.056,0,0,0,.578,1.906,14.352,14.352,0,0,0,9.283,5.712,15.044,15.044,0,0,0,9.247-2.1,3,3,0,0,0,1.471-2.606V145.2a.05.05,0,0,1,.05-.05,10.812,10.812,0,0,0,2.206-.1c2.078-.55,7.354-2.692,8.99-10.525C280.2,131.866,280.666,124.511,280.959,117.2Z" transform="translate(-184.307 -96.612)" fill="#ffbe9d"/>
        <path id="Path_9937" data-name="Path 9937" d="M278.237,135.774a9.517,9.517,0,0,1,2.278-.286c.357,0,.714-.071.771-.307a1.8,1.8,0,0,0-.193-1.042c-.293-.864-.607-1.771-.928-2.713a45.7,45.7,0,0,1-2.042-7.076,45.879,45.879,0,0,1,2.613,6.9c.307.957.607,1.864.885,2.728a1.992,1.992,0,0,1,.121,1.378.893.893,0,0,1-.607.486,2.341,2.341,0,0,1-.607.05A9.338,9.338,0,0,1,278.237,135.774Z" transform="translate(-192.945 -103.462)" fill="#263238"/>
        <path id="Path_9938" data-name="Path 9938" d="M288.415,130.8a1.285,1.285,0,0,1-1.307,1.221,1.235,1.235,0,0,1-1.278-1.214,1.271,1.271,0,0,1,1.307-1.221,1.235,1.235,0,0,1,1.278,1.214Z" transform="translate(-195.154 -104.961)" fill="#263238"/>
        <path id="Path_9939" data-name="Path 9939" d="M289.288,125.772c-.129.136-1.164.071-2.478.514s-2.185,1.135-2.356,1.1,0-.228.407-.543a6.026,6.026,0,0,1,1.849-.985,5.283,5.283,0,0,1,2.006-.3C289.166,125.594,289.352,125.7,289.288,125.772Z" transform="translate(-194.742 -103.807)" fill="#263238"/>
        <path id="Path_9940" data-name="Path 9940" d="M269.655,129.574a1.285,1.285,0,0,1-1.307,1.221,1.242,1.242,0,0,1-1.278-1.214,1.278,1.278,0,0,1,1.307-1.221,1.235,1.235,0,0,1,1.278,1.214Z" transform="translate(-189.789 -104.609)" fill="#263238"/>
        <path id="Path_9941" data-name="Path 9941" d="M269.335,126.464a27.142,27.142,0,0,0-2.321-1.428c-1.357-.614-2.542-.771-2.642-.928s.193-.15.714-.1a6.6,6.6,0,0,1,2.142.643,5.8,5.8,0,0,1,1.785,1.264C269.37,126.242,269.428,126.456,269.335,126.464Z" transform="translate(-189.012 -103.356)" fill="#263238"/>
        <path id="Path_9942" data-name="Path 9942" d="M271.852,161.336s-5.391.157-11.931-4.156c0,0,1.8,7.09,11.931,6.676Z" transform="translate(-187.745 -112.851)" fill="#eb996e"/>
        <path id="Path_9943" data-name="Path 9943" d="M275.585,144.507a2.57,2.57,0,0,0-2.206-1.028,2.32,2.32,0,0,0-1.621.757,1.428,1.428,0,0,0-.186,1.621,1.714,1.714,0,0,0,1.807.55,5.312,5.312,0,0,0,1.821-.957,1.549,1.549,0,0,0,.421-.386.457.457,0,0,0,0-.507" transform="translate(-191.028 -108.931)" fill="#eb996e"/>
        <path id="Path_9944" data-name="Path 9944" d="M272.4,141.38c.221,0,.157,1.485,1.428,2.606s2.856,1.035,2.856,1.242c0,.093-.371.271-1.05.257a3.849,3.849,0,0,1-2.392-.957,3.256,3.256,0,0,1-1.085-2.142C272.107,141.73,272.292,141.366,272.4,141.38Z" transform="translate(-191.242 -108.332)" fill="#263238"/>
        <path id="Path_9945" data-name="Path 9945" d="M270.091,119.108c-.193.343-1.535-.064-3.177-.157s-3.02.121-3.177-.25c-.064-.171.214-.478.8-.714a5.341,5.341,0,0,1,2.456-.393,5.27,5.27,0,0,1,2.385.714C269.934,118.593,270.184,118.943,270.091,119.108Z" transform="translate(-188.834 -101.526)" fill="#263238"/>
        <path id="Path_9946" data-name="Path 9946" d="M289.319,119.395c-.257.3-1.2-.071-2.349-.143s-2.142.1-2.349-.236c-.093-.164.078-.471.514-.714a3.5,3.5,0,0,1,3.792.307C289.319,118.938,289.433,119.266,289.319,119.395Z" transform="translate(-194.801 -101.614)" fill="#263238"/>
        <path id="Path_9947" data-name="Path 9947" d="M266.782,97.17a4.736,4.736,0,0,0-3.627-1.964c-6.184-.814-13,3.027-16.351,8.283s-3.4,13.031-.764,18.672l2.321.364c4.813-.378,12.667-13.952,19.279-21.492C268.46,100.1,267.439,98.255,266.782,97.17Z" transform="translate(-183.239 -95.097)" fill="#263238"/>
        <path id="Path_9948" data-name="Path 9948" d="M287.514,101.419c-2.628-2.856-6.89-6.383-12.2-4.284-.764,1.514.864,3.435,2.206,4.541,1.978,1.635,3.7,2.728,5,3.891,2.621,2.363,5.891,6.291,6.226,10.711,0,.278.236.314.514.264s1.15-1.878,1.535-4.284C291.592,107.146,290.149,104.3,287.514,101.419Z" transform="translate(-192.09 -95.498)" fill="#263238"/>
        <path id="Path_9949" data-name="Path 9949" d="M243.747,119.859a7.776,7.776,0,0,0-1.628-3.206h0a7.469,7.469,0,0,0-1.8-1.549,8.64,8.64,0,0,0-8.354-.121,10.2,10.2,0,0,0-5,6.8,9.775,9.775,0,0,0,.621,6.276,9.132,9.132,0,0,0,8.026,5.048,9.839,9.839,0,0,0,8.3-4.734C245.1,126.357,244.768,122.8,243.747,119.859Z" transform="translate(-178.248 -100.493)" fill="#263238"/>
        <path id="Path_9950" data-name="Path 9950" d="M249.651,129.367c-.143-.071-5.884-2.221-6.134,3.777s5.827,5,5.841,4.841S249.651,129.367,249.651,129.367Z" transform="translate(-183.052 -104.774)" fill="#ffbe9d"/>
        <path id="Path_9951" data-name="Path 9951" d="M248.235,136.406a1.7,1.7,0,0,1-.286.143,1.064,1.064,0,0,1-.785,0,2.61,2.61,0,0,1-1.1-2.371,3.4,3.4,0,0,1,.357-1.485,1.214,1.214,0,0,1,.821-.771.528.528,0,0,1,.6.314c.079.171.036.286.064.3s.136-.093.093-.343a.607.607,0,0,0-.221-.386.785.785,0,0,0-.571-.178,1.478,1.478,0,0,0-1.128.885,3.57,3.57,0,0,0-.428,1.657,2.731,2.731,0,0,0,1.428,2.656,1.121,1.121,0,0,0,.964-.121C248.221,136.548,248.256,136.42,248.235,136.406Z" transform="translate(-183.664 -105.543)" fill="#eb996e"/>
        <path id="Path_9952" data-name="Path 9952" d="M289.489,104.507a6.384,6.384,0,0,1-1.749.228,23.685,23.685,0,0,1-4.248-.143,24.542,24.542,0,0,1-4.149-.85,6.348,6.348,0,0,1-1.642-.643,11.728,11.728,0,0,1,1.714.393,37.893,37.893,0,0,0,4.141.757,38.368,38.368,0,0,0,4.2.25A10.832,10.832,0,0,1,289.489,104.507Z" transform="translate(-192.829 -97.386)" fill="#455a64"/>
        <path id="Path_9953" data-name="Path 9953" d="M293.551,110.345a3.456,3.456,0,0,1-1.3.307,10.04,10.04,0,0,1-3.242-.171A10.161,10.161,0,0,1,286,109.288a3.328,3.328,0,0,1-1.057-.828,18.037,18.037,0,0,0,4.149,1.657,18.737,18.737,0,0,0,4.463.229Z" transform="translate(-194.9 -98.919)" fill="#455a64"/>
        <path id="Path_9954" data-name="Path 9954" d="M246.79,106.972c0-.079,1.3.15,3.392.093a24.824,24.824,0,0,0,3.656-.371,33.224,33.224,0,0,0,4.348-1.128,35.533,35.533,0,0,0,4.156-1.735A32.385,32.385,0,0,0,265.526,102c1.757-1.142,2.735-2.006,2.785-1.956a4.79,4.79,0,0,1-.664.643c-.214.2-.493.428-.828.714a13.6,13.6,0,0,1-1.142.85,28.919,28.919,0,0,1-3.185,1.921,32.76,32.76,0,0,1-4.184,1.778,29.819,29.819,0,0,1-4.413,1.114,22.85,22.85,0,0,1-3.706.3,12.385,12.385,0,0,1-1.428-.057,7.85,7.85,0,0,1-1.071-.114A5,5,0,0,1,246.79,106.972Z" transform="translate(-183.99 -96.51)" fill="#455a64"/>
        <path id="Path_9955" data-name="Path 9955" d="M268.263,103a4.624,4.624,0,0,1-.478.835c-.164.264-.371.586-.635.935s-.543.771-.914,1.185a24.57,24.57,0,0,1-2.692,2.813,26.937,26.937,0,0,1-3.849,2.813,25.962,25.962,0,0,1-4.334,2.021,22.985,22.985,0,0,1-3.77.971c-.543.114-1.043.15-1.478.2a9.069,9.069,0,0,1-1.128.086,5.907,5.907,0,0,1-.964,0c0-.079,1.371-.107,3.52-.536a25.337,25.337,0,0,0,11.774-5.812,26.324,26.324,0,0,0,2.72-2.72C267.477,104.106,268.2,102.949,268.263,103Z" transform="translate(-184.342 -97.357)" fill="#455a64"/>
        <path id="Path_9956" data-name="Path 9956" d="M270.76,95.263a2.314,2.314,0,0,1,1.207.086A5.2,5.2,0,0,1,274.43,96.9a4.591,4.591,0,0,1,.5.714,3.628,3.628,0,0,1,.3.714,8.322,8.322,0,0,1,.336,1.257,1.863,1.863,0,0,1-.086,1.207c-.064,0,0-.464-.171-1.15a10.865,10.865,0,0,0-.407-1.2,3.512,3.512,0,0,0-.286-.671,4.133,4.133,0,0,0-.464-.621,5.712,5.712,0,0,0-2.263-1.549C271.217,95.363,270.76,95.327,270.76,95.263Z" transform="translate(-190.845 -95.132)" fill="#455a64"/>
        <path id="Path_9957" data-name="Path 9957" d="M247.405,124.819c-.057,0,.121-.621.25-1.607a10.653,10.653,0,0,0-.221-3.849A8.048,8.048,0,0,0,245.62,116c-.714-.714-1.214-1.064-1.171-1.128s.15.05.4.2a5.315,5.315,0,0,1,.957.714,7.419,7.419,0,0,1,1.985,3.456,9.168,9.168,0,0,1,.121,3.977,4.577,4.577,0,0,1-.507,1.6Z" transform="translate(-183.32 -100.747)" fill="#ff725e"/>
        <path id="Path_9958" data-name="Path 9958" d="M243.24,125.513c-.036.05-.771-.421-2.035-1.05a22.885,22.885,0,0,0-10.611-2.363c-1.428,0-2.271.143-2.285.086a1.935,1.935,0,0,1,.6-.15,14.074,14.074,0,0,1,1.678-.2,19.893,19.893,0,0,1,10.71,2.4,13.044,13.044,0,0,1,1.428.885C243.083,125.328,243.255,125.463,243.24,125.513Z" transform="translate(-178.705 -102.734)" fill="#455a64"/>
        <path id="Path_9959" data-name="Path 9959" d="M238.8,123.62a6.168,6.168,0,0,1-.45,1.764,16.93,16.93,0,0,1-2.006,3.9,16.7,16.7,0,0,1-2.956,3.242,5.983,5.983,0,0,1-1.492,1.035,28.453,28.453,0,0,0,4.141-4.491A28.759,28.759,0,0,0,238.8,123.62Z" transform="translate(-179.732 -103.254)" fill="#455a64"/>
        <path id="Path_9960" data-name="Path 9960" d="M245.71,139.886c.043-.114.257-.186.614-.093a2.3,2.3,0,0,1,1.257.943,2.792,2.792,0,0,1-.65,3.784,2.949,2.949,0,0,1-3.306.086,3.1,3.1,0,0,1-1.043-1.142,2.857,2.857,0,0,1-.343-1.364,2.942,2.942,0,0,1,.264-1.114,2.142,2.142,0,0,1,1.1-1.164c.378-.143.607-.043.635.071.043.257-.407.6-.478,1.478a2.144,2.144,0,0,0,0,.643,1.771,1.771,0,0,0,.278.578,1.428,1.428,0,0,0,1.178.621,1.171,1.171,0,0,0,1.064-.643,1.656,1.656,0,0,0,.121-1.228C246.189,140.55,245.639,140.129,245.71,139.886Z" transform="translate(-182.689 -107.867)" fill="#455a64"/>
        <path id="Path_9961" data-name="Path 9961" d="M255.61,119.824a17.81,17.81,0,0,0,3.613-.635,15.273,15.273,0,0,0,7.14-5,23.935,23.935,0,0,0,4-7.854c.343-1.092.578-1.985.714-2.6a5.317,5.317,0,0,1,.271-.957,5.2,5.2,0,0,1-.136.985c-.107.628-.307,1.535-.614,2.642a22.606,22.606,0,0,1-3.97,8.019,14.945,14.945,0,0,1-7.34,5,11.046,11.046,0,0,1-2.692.436q-.357.017-.714,0C255.7,119.845,255.61,119.838,255.61,119.824Z" transform="translate(-186.512 -97.294)" fill="#263238"/>
        <path id="Path_9962" data-name="Path 9962" d="M267.588,169.646a1.129,1.129,0,0,1,.364.178,3.57,3.57,0,0,1,.85.793,4.349,4.349,0,0,1,.785,1.664,4.584,4.584,0,0,1-.064,2.435,7.14,7.14,0,0,1-4.377,4.377,15.064,15.064,0,0,1-3.627.885,21.718,21.718,0,0,1-4,.157,14.388,14.388,0,0,1-7.319-2.306,10.667,10.667,0,0,1-4.013-4.813,6.041,6.041,0,0,1-.478-2.385,3.671,3.671,0,0,1,.486-1.778,2.856,2.856,0,0,1,.771-.871,1.186,1.186,0,0,1,.35-.193,3.427,3.427,0,0,0-.992,1.135,3.57,3.57,0,0,0-.407,1.707,6.149,6.149,0,0,0,.514,2.292,10.56,10.56,0,0,0,3.963,4.62,14.281,14.281,0,0,0,7.14,2.221,21.686,21.686,0,0,0,3.934-.15,14.524,14.524,0,0,0,3.57-.843,6.883,6.883,0,0,0,4.284-4.127,4.555,4.555,0,0,0-.586-3.941,4.805,4.805,0,0,0-1.15-1.057Z" transform="translate(-183.681 -115.885)" fill="#263238"/>
        <path id="Path_9963" data-name="Path 9963" d="M254.334,182.16a2.314,2.314,0,0,1,.35-1.707c.457-.885,1.15-1.335,1.207-1.257s-.464.621-.878,1.428A15.6,15.6,0,0,1,254.334,182.16Z" transform="translate(-186.136 -119.144)" fill="#263238"/>
        <path id="Path_9964" data-name="Path 9964" d="M263.666,183.935a3.206,3.206,0,0,1-.121-1.5,2.735,2.735,0,0,1,.243-1.485,3.263,3.263,0,0,1,.129,1.5C263.859,183.271,263.773,183.935,263.666,183.935Z" transform="translate(-188.77 -119.648)" fill="#263238"/>
        <path id="Path_9965" data-name="Path 9965" d="M272.878,182.41a7.8,7.8,0,0,1-.678-3.32,4.006,4.006,0,0,1,.521,1.621A4.078,4.078,0,0,1,272.878,182.41Z" transform="translate(-191.256 -119.116)" fill="#263238"/>
        <path id="Path_9966" data-name="Path 9966" d="M277.955,177.247c-.093.05-.371-.321-.835-.621s-.907-.428-.9-.536.557-.143,1.107.221S278.048,177.212,277.955,177.247Z" transform="translate(-192.406 -118.238)" fill="#263238"/>
        <path id="Path_9967" data-name="Path 9967" d="M248.777,173.977c0,.1-.378.236-.757.55s-.614.65-.714.614,0-.536.478-.907S248.77,173.884,248.777,173.977Z" transform="translate(-184.128 -117.638)" fill="#263238"/>
        <path id="Path_9968" data-name="Path 9968" d="M265.259,233.891a1.5,1.5,0,0,1-1.307-2.085,148.211,148.211,0,0,1,7.533-13.238c.5-.757.764-1.692,2.363-1.885.614-.071,10.253-.293,12.517-.343a1.385,1.385,0,0,1,1,.371,1.9,1.9,0,0,1,.207,2.521c-.8,1.428-6.626,10.475-8.99,13.959a2.435,2.435,0,0,1-2.092,1.064Z" transform="translate(-188.864 -129.768)" fill="#263238"/>
        <path id="Path_9969" data-name="Path 9969" d="M285.992,220.6a.714.714,0,0,0-.771-.214,1.606,1.606,0,0,0-.678.436.6.6,0,0,0-.143.757.714.714,0,0,0,.65.221,1.242,1.242,0,0,0,.807-.364A.757.757,0,0,0,285.992,220.6Z" transform="translate(-194.723 -130.915)" fill="#fff"/>
        <path id="Path_9970" data-name="Path 9970" d="M287.658,221.816a4.512,4.512,0,0,1,.378-.835c.143-.278.3-.6.486-.95.1-.186.2-.386.307-.593a1.429,1.429,0,0,0,.243-.635.714.714,0,0,0-.293-.6.992.992,0,0,0-.757-.129l-1.971.079-4.505.157-4.513.136h-.5a.714.714,0,0,0-.371.143,4.029,4.029,0,0,0-.514.714c-.328.514-.636,1-.928,1.428l-1.357,2.078a4.326,4.326,0,0,1-.543.714,4.133,4.133,0,0,1,.421-.814l1.257-2.142.885-1.471.243-.4a1.541,1.541,0,0,1,.328-.421,1,1,0,0,1,.543-.228h.528l4.491-.121,4.513-.129,1.964-.043a1.314,1.314,0,0,1,.95.207,1.014,1.014,0,0,1,.378.835.936.936,0,0,1-.121.421l-.178.321-.336.578c-.2.343-.378.65-.543.921A4.087,4.087,0,0,1,287.658,221.816Z" transform="translate(-191.434 -130.168)" fill="#455a64"/>
        <path id="Path_9971" data-name="Path 9971" d="M304.282,221.761s-.978,6.8-1.978,11.167c-.893,3.891-2.313,17.044-5.926,18.7s-8.119.621-9.782-2.585-3.449-11.739-3.449-11.739l-7.569-3.185s-1.742-6.348-.75-7.062,10.76.357,10.76.357l2.621-.593s-4.17-.6-5.062-.835a1.514,1.514,0,0,1-1.271-1.785c.207-.835.378-1.671,2.635-1.671s5.8-.336,6.426-.114c.8.271,1.7.714,1.878,2.735a23.217,23.217,0,0,1-.771,5.712l.207.314,1.335-9.839Z" transform="translate(-191.92 -131.199)" fill="#ffbe9d"/>
        <path id="Path_9972" data-name="Path 9972" d="M291.891,237.9a1.906,1.906,0,0,1-.614.243,15.292,15.292,0,0,1-1.735.471,21.486,21.486,0,0,1-5.905.45,19.72,19.72,0,0,1-5.791-1.264,13.669,13.669,0,0,1-1.642-.714,2.278,2.278,0,0,1-.564-.343c0-.057.871.343,2.3.828a22.969,22.969,0,0,0,5.712,1.135,24.993,24.993,0,0,0,5.812-.357C290.977,238.1,291.877,237.847,291.891,237.9Z" transform="translate(-192.24 -135.603)" fill="#eb996e"/>
        <path id="Path_9973" data-name="Path 9973" d="M290.124,233.663a2.142,2.142,0,0,1-.614.193c-.4.1-.985.228-1.714.35a22.478,22.478,0,0,1-5.784.214,15.524,15.524,0,0,1-5.555-1.614,10.715,10.715,0,0,1-1.492-.928c-.328-.25-.5-.407-.486-.428s.771.5,2.092,1.121a17.28,17.28,0,0,0,5.484,1.478,26.04,26.04,0,0,0,5.712-.107C289.217,233.77,290.117,233.606,290.124,233.663Z" transform="translate(-191.908 -134.089)" fill="#eb996e"/>
        <path id="Path_9974" data-name="Path 9974" d="M297.981,224.72c.043,0,.178.336.143.914a2.2,2.2,0,0,1-.279,1.007,1.256,1.256,0,0,1-.486.443,3.245,3.245,0,0,1-.6.264,8.389,8.389,0,0,1-2.178.371,7.378,7.378,0,0,1-.892.071c0-.05.3-.229.857-.328a16.271,16.271,0,0,0,2.1-.464,1.892,1.892,0,0,0,.914-.543,2.313,2.313,0,0,0,.307-.85A6.881,6.881,0,0,1,297.981,224.72Z" transform="translate(-197.402 -132.165)" fill="#eb996e"/>
        <path id="Path_9975" data-name="Path 9975" d="M292.152,240.74a1.428,1.428,0,0,1,0,1.235,2.634,2.634,0,0,1-.764,1.15,3.084,3.084,0,0,1-1.528.714,3.935,3.935,0,0,1-1.671-.071,6.111,6.111,0,0,1-1.242-.507,5.5,5.5,0,0,1-1.057-.607,3.135,3.135,0,0,1,1.164.364,4.72,4.72,0,0,0,2.742.457,2.97,2.97,0,0,0,1.371-.6,2.642,2.642,0,0,0,.714-.978A4.282,4.282,0,0,0,292.152,240.74Z" transform="translate(-195.171 -136.746)" fill="#eb996e"/>
        <path id="Path_9976" data-name="Path 9976" d="M299.007,223.76s.05,0,.136.079a1.25,1.25,0,0,1,.3.357,3.756,3.756,0,0,1,.428,1.649,20.194,20.194,0,0,1-.714,5.769v-.1a17.968,17.968,0,0,0,1.349,2.813,31.049,31.049,0,0,0,2.456,3.57A16.163,16.163,0,0,1,305.1,240.8a3.306,3.306,0,0,1,.207,2.421,1.993,1.993,0,0,1-.321.593c-.093.114-.157.164-.164.157a4.821,4.821,0,0,0,.343-.793,3.256,3.256,0,0,0-.3-2.263,17.787,17.787,0,0,0-2.142-2.806,28.731,28.731,0,0,1-2.513-3.57,17.789,17.789,0,0,1-1.364-2.856v-.107a22.849,22.849,0,0,0,.814-5.677,4.177,4.177,0,0,0-.307-1.6A5.3,5.3,0,0,0,299.007,223.76Z" transform="translate(-198.877 -131.891)" fill="#eb996e"/>
        <path id="Path_9977" data-name="Path 9977" d="M205.465,238.21s-1.107,15.18,5.955,17.722c9.732,3.513,20.828-6.184,20.871-6.341s11.81-9.632,11.81-9.632l-3.663-10.089a7.534,7.534,0,0,0-3.849,1.7c-.864.614-14.5,7.8-14.5,7.8S216.132,239.324,205.465,238.21Z" transform="translate(-172.154 -133.638)" fill="#ffbe9d"/>
        <path id="Path_9978" data-name="Path 9978" d="M225.008,242.86c.05.114-2.521,1.157-5.627,2.549-1.549.714-2.913,1.428-3.891,1.942a11.422,11.422,0,0,1-1.6.843,7.063,7.063,0,0,1,1.464-1.071,34.151,34.151,0,0,1,3.877-2.049c1.557-.714,3-1.271,4.049-1.657A9.424,9.424,0,0,1,225.008,242.86Z" transform="translate(-174.582 -137.353)" fill="#eb996e"/>
        <path id="Path_9979" data-name="Path 9979" d="M267.149,221.129s-1.842-2.606-2.571-2.6-5.12.714-5.12.714l-6.2,6.762s-.428,2.192.914,2.985c0,0-.45,3.449,1.207,4.441,0,0,1.235,3.242,2.392,3.306a8.251,8.251,0,0,0,1.471,0s-.25,1.949,1.514,2.071a31.006,31.006,0,0,0,5.212-.521,1.95,1.95,0,0,0,1.271-.8l1.514-2.142a1.949,1.949,0,0,0,0-2.278h0a5.135,5.135,0,0,0,.914-1.592,6.948,6.948,0,0,0,0-2.035s2.62-2.221,2.685-2.8-.064-1.135-1.221-1.071c0,0-.243-1.792-1.707-1.749s-8.4,0-8.4,0l1.321-1.285s3.449,1.314,3.813.443Z" transform="translate(-185.82 -130.395)" fill="#ffbe9d"/>
        <path id="Path_9980" data-name="Path 9980" d="M258.8,231.634a7.536,7.536,0,0,1,1.128-.079c.714-.043,1.771-.107,3.07-.257a40.2,40.2,0,0,0,4.548-.807c.85-.207,1.735-.45,2.649-.714a6.583,6.583,0,0,0,2.4-1.6l.043-.036h.05a1.549,1.549,0,0,1,1.014.1.85.85,0,0,1,.357.464,1.684,1.684,0,0,1,.064.521.9.9,0,0,1,0,.236.713.713,0,0,1-.107.264,3.308,3.308,0,0,1-.264.357c-.178.214-.378.414-.571.614-.393.393-.785.757-1.185,1.107h0a47.3,47.3,0,0,1-4.284,3.042,10.8,10.8,0,0,1-3.956,1.428,7.947,7.947,0,0,1-2.785-.071,4.762,4.762,0,0,1-.714-.207.757.757,0,0,1-.236-.107,8.9,8.9,0,0,0,3.706.15,11.01,11.01,0,0,0,3.834-1.428c1.35-.807,2.713-1.928,4.22-3.063h0c.393-.35.785-.714,1.164-1.1.193-.193.378-.386.55-.593a3.266,3.266,0,0,0,.236-.307c.071-.1.057-.114.057-.121a.784.784,0,0,0,0-.186c0-.3-.05-.564-.243-.664a1.207,1.207,0,0,0-.757-.057l.1-.043a11.708,11.708,0,0,1-1.192.978,4.056,4.056,0,0,1-1.357.714c-.921.286-1.821.521-2.685.714a35.13,35.13,0,0,1-4.591.714c-1.314.129-2.371.15-3.1.15h-.835A1.178,1.178,0,0,1,258.8,231.634Z" transform="translate(-187.424 -133.132)" fill="#eb996e"/>
        <path id="Path_9981" data-name="Path 9981" d="M272.7,233.79a3.262,3.262,0,0,1,.15,1.085v.907a.964.964,0,0,1-.107.371,6.2,6.2,0,0,1-.357.714l-.214.357-.114.178a1.073,1.073,0,0,1-.071.114l-.05.043c-.036,0,0,.05-.171,0a.164.164,0,0,1-.064-.2.085.085,0,0,1,0-.036h0l.036-.05.286.171a8.018,8.018,0,0,1-1.821,2.235,7.626,7.626,0,0,1-4.427,1.828,6.893,6.893,0,0,1-1.428-.043,1.642,1.642,0,0,1-.521-.121c0-.071.757.057,1.956-.093a8.026,8.026,0,0,0,4.213-1.856,8.389,8.389,0,0,0,1.764-2.142l.293.171a9.654,9.654,0,0,0,.65-3.634Z" transform="translate(-188.86 -134.759)" fill="#eb996e"/>
        <path id="Path_9982" data-name="Path 9982" d="M265.76,223.213c0,.086-.714-.179-1.064-1.007a1.857,1.857,0,0,1-.057-1.064c.071-.264.171-.407.214-.393a4.648,4.648,0,0,0,.193,1.328C265.3,222.742,265.832,223.12,265.76,223.213Z" transform="translate(-189.079 -131.029)" fill="#eb996e"/>
        <path id="Path_9983" data-name="Path 9983" d="M259.3,239.809a1.106,1.106,0,0,1-.55.129,3,3,0,0,1-1.514-.286,3.17,3.17,0,0,1-1.578-1.664,3.57,3.57,0,0,1-.257-1.342.6.6,0,0,0-.236-.478,2.777,2.777,0,0,1-1.25-2.306,9.221,9.221,0,0,1,.064-1.692l.079.157a2.6,2.6,0,0,1-1.2-2.263,1.428,1.428,0,0,1,.278-.943,7.379,7.379,0,0,0-.086.935,2.456,2.456,0,0,0,1.171,1.992l.086.05v.1a9.515,9.515,0,0,0,0,1.635,2.856,2.856,0,0,0,.614,1.6,2.935,2.935,0,0,0,.514.45.971.971,0,0,1,.364.714,3.384,3.384,0,0,0,.207,1.242,2.992,2.992,0,0,0,1.378,1.557A4.2,4.2,0,0,0,259.3,239.809Z" transform="translate(-185.725 -133.423)" fill="#eb996e"/>
        <g id="Group_3977" data-name="Group 3977" transform="translate(50.818 85.979)" opacity="0.3">
          <path id="Path_9984" data-name="Path 9984" d="M233.8,215.51a85.273,85.273,0,0,1-3.792,18.565,13.566,13.566,0,0,0,4.641-8.29C235.122,222.593,234.373,218.716,233.8,215.51Z" transform="translate(-230.01 -215.51)"/>
        </g>
        <g id="Group_3978" data-name="Group 3978" transform="translate(101.251 74.004)" opacity="0.3">
          <path id="Path_9985" data-name="Path 9985" d="M302.639,206.552a27.534,27.534,0,0,0-2-7.812,44.7,44.7,0,0,1,.378,16.273l.257-.578A14.867,14.867,0,0,0,302.639,206.552Z" transform="translate(-300.64 -198.74)"/>
        </g>
      </g>
    </g>
    <g id="Group_3982" data-name="Group 3982" transform="translate(-876.563 -4492.56)">
      <g id="Group_3981" data-name="Group 3981">
        <g id="_17_Download" data-name="17 Download">
          <g id="Group_3980" data-name="Group 3980">
            <path id="Path_9986" data-name="Path 9986" d="M22.862,231a1.174,1.174,0,0,0-1.174,1.174,9.671,9.671,0,1,1-19.341,0,1.174,1.174,0,1,0-2.347,0,12.021,12.021,0,0,0,12.018,12.018,12.021,12.021,0,0,0,12.018-12.018A1.174,1.174,0,0,0,22.862,231Z" transform="translate(0 -220.156)" fill="#ed5929"/>
            <path id="Path_9987" data-name="Path 9987" d="M154.653,16.13a2.278,2.278,0,0,0,3.22,0l2.953-2.953a1.175,1.175,0,1,0-1.662-1.662l-1.728,1.732V1.174a1.174,1.174,0,1,0-2.347,0V13.248l-1.732-1.732a1.175,1.175,0,1,0-1.662,1.662Z" transform="translate(-144.245)" fill="#ed5929"/>
          </g>
        </g>
      </g>
    </g>
  </g>
</svg>
