<svg xmlns="http://www.w3.org/2000/svg" xmlns:xlink="http://www.w3.org/1999/xlink" width="32" height="32" viewBox="0 0 32 32">
  <defs>
    <clipPath id="clip-path">
      <rect id="Rectangle_581" data-name="Rectangle 581" width="32" height="32" transform="translate(0)" fill="#55cd6c" stroke="#707070" stroke-width="1"/>
    </clipPath>
  </defs>
  <g id="Mask_Group_5" data-name="Mask Group 5" transform="translate(0)" clip-path="url(#clip-path)">
    <g id="whatsapp_1_" data-name="whatsapp (1)" transform="translate(0.732 0.771)">
      <path id="Path_10405" data-name="Path 10405" d="M0,31.229l2.154-7.807A15.531,15.531,0,0,1,15.56,0,15.685,15.685,0,0,1,31.229,15.507,15.87,15.87,0,0,1,15.56,31.229a15.674,15.674,0,0,1-7.592-2.154Z" fill="#e0e0e0"/>
      <path id="Path_10406" data-name="Path 10406" d="M49.845,67.721l.485.269a12.784,12.784,0,0,0,6.73,1.992,13.053,13.053,0,0,0,12.922-13.03,12.923,12.923,0,0,0-25.844,0A13.043,13.043,0,0,0,46.13,63.9l.323.485-1.238,4.523Z" transform="translate(-41.446 -41.446)" fill="#55cd6c"/>
      <path id="Path_10407" data-name="Path 10407" d="M133.213,135.116l-1.023-.054a1.223,1.223,0,0,0-.861.323,4.461,4.461,0,0,0-1.508,2.315c-.377,1.615.215,3.554,1.615,5.492a16.317,16.317,0,0,0,8.83,6.407,4.374,4.374,0,0,0,3.661-.431,3.177,3.177,0,0,0,1.4-2.046l.162-.754a.541.541,0,0,0-.269-.592l-3.392-1.561a.514.514,0,0,0-.646.162l-1.346,1.723a.419.419,0,0,1-.431.108,10.464,10.464,0,0,1-5.653-4.846.406.406,0,0,1,.054-.431l1.292-1.454a.663.663,0,0,0,.108-.538l-1.561-3.5a.469.469,0,0,0-.431-.323" transform="translate(-121.798 -126.824)" fill="#fefefe"/>
    </g>
  </g>
</svg>
