<svg xmlns="http://www.w3.org/2000/svg" xmlns:xlink="http://www.w3.org/1999/xlink" width="93" height="93" viewBox="0 0 93 93">
  <defs>
    <clipPath id="clip-path">
      <rect id="Rectangle_578" data-name="Rectangle 578" width="93" height="93" transform="translate(129 40)" fill="#fff" stroke="#707070" stroke-width="1"/>
    </clipPath>
  </defs>
  <g id="Mask_Group_4" data-name="Mask Group 4" transform="translate(-129 -40)" clip-path="url(#clip-path)">
    <g id="power" transform="translate(117.971 40.341)">
      <path id="Path_9826" data-name="Path 9826" d="M26.971,59A31.106,31.106,0,0,1,46.434,30.194L52.25,18.512A40.9,40.9,0,0,0,47,98.4l1.119-9.954A31.113,31.113,0,0,1,26.971,59Z" transform="translate(0 -12.817)" fill="#28a79e"/>
      <path id="Path_9827" data-name="Path 9827" d="M204.064,61.49A40.975,40.975,0,0,0,174.2,22.1l-1.144,9.947a31.058,31.058,0,0,1,1.9,58.171l-5.977,11.758A40.964,40.964,0,0,0,204.064,61.49Z" transform="translate(-105.133 -15.301)" fill="#28a79e"/>
      <path id="Path_9828" data-name="Path 9828" d="M120.2,41.232a2.274,2.274,0,0,0-2.194-3.35H99.293l4.028-35.021A2.6,2.6,0,0,0,101.576.1a2.5,2.5,0,0,0-.713-.1,2.456,2.456,0,0,0-2.191,1.367L73.366,52.216a2.679,2.679,0,0,0,.111,2.5,2.613,2.613,0,0,0,2.093,1.315H94.035l-3.786,33.7a2.334,2.334,0,0,0,1.74,2.518,2.435,2.435,0,0,0,.705.089A2.462,2.462,0,0,0,94.89,91Z" transform="translate(-38.758 0)" fill="#28a79e"/>
    </g>
  </g>
</svg>
