<svg xmlns="http://www.w3.org/2000/svg" xmlns:xlink="http://www.w3.org/1999/xlink" width="93" height="93" viewBox="0 0 93 93">
  <defs>
    <clipPath id="clip-path">
      <rect id="Rectangle_579" data-name="Rectangle 579" width="93" height="93" transform="translate(130 37)" fill="#fff" stroke="#707070" stroke-width="1"/>
    </clipPath>
  </defs>
  <g id="Mask_Group_5" data-name="Mask Group 5" transform="translate(-130 -37)" clip-path="url(#clip-path)">
    <g id="power_1_" data-name="power (1)" transform="translate(146.22 37.001)">
      <path id="Path_9829" data-name="Path 9829" d="M60.9,47.179,59.6,61.034A28.87,28.87,0,0,1,30.854,87.2H28.881A28.871,28.871,0,0,1,.01,58.324C-.2,51.062,3.4,37.52,5.491,30.536a.409.409,0,0,1,.8.091,6.5,6.5,0,0,0,12.66,1.859C24.185,16.86,18.822,4.686,17.885.5A.407.407,0,0,1,18.476.05c17.9,9.638,23.13,19.316,24.569,28.381a2.371,2.371,0,0,0,4.652.162,17.523,17.523,0,0,0,.213-6.439A.408.408,0,0,1,48.6,21.8c9.191,8.781,6.77,20.831,3.992,28.127A1.938,1.938,0,0,0,55.7,52.047a29.124,29.124,0,0,0,4.457-5.089.409.409,0,0,1,.747.222Zm0,0" transform="translate(0 0)" fill="#28a79e"/>
      <path id="Path_9830" data-name="Path 9830" d="M115.18,91.429l-1.306,13.855a28.87,28.87,0,0,1-28.743,26.161H83.158a28.813,28.813,0,0,1-8.911-1.4,29.818,29.818,0,0,1-7.913-20.228c-.231-7.618,3.636-21.824,5.875-29.15a.44.44,0,0,1,.856.092c.009.122.018.243.028.361.616,7.373,11.141,8.605,13.541,1.592a46.423,46.423,0,0,0,.285-28.64c6.642,6.16,9.413,12.372,10.4,18.61a2.371,2.371,0,0,0,4.652.162,17.523,17.523,0,0,0,.213-6.439.408.408,0,0,1,.685-.356c9.191,8.781,6.77,20.831,3.992,28.127a1.938,1.938,0,0,0,3.111,2.123,29.124,29.124,0,0,0,4.457-5.089.409.409,0,0,1,.747.222Zm0,0" transform="translate(-54.277 -44.249)" fill="#28a79e"/>
      <path id="Path_9831" data-name="Path 9831" d="M127.4,305.9v32.13a2.926,2.926,0,0,1-2.918,2.918H107.205a2.925,2.925,0,0,1-2.916-2.918V305.9a2.925,2.925,0,0,1,2.916-2.918H124.48A2.926,2.926,0,0,1,127.4,305.9Zm0,0" transform="translate(-85.346 -247.948)" fill="#f2bb88"/>
      <path id="Path_9832" data-name="Path 9832" d="M147.471,305.9v32.13a2.925,2.925,0,0,1-2.918,2.918H131.734a2.925,2.925,0,0,1-2.918-2.918V305.9a2.926,2.926,0,0,1,2.918-2.918h12.819A2.926,2.926,0,0,1,147.471,305.9Zm0,0" transform="translate(-105.418 -247.951)" fill="#f2d1a5"/>
      <path id="Path_9833" data-name="Path 9833" d="M95.8,283.66v12.417a11.239,11.239,0,0,1-11.206,11.206h-3.35A13.251,13.251,0,0,1,68.031,294.07v-10.41H95.8Zm0,0" transform="translate(-55.673 -232.137)" fill="#f2d1a5"/>
      <g id="Group_3989" data-name="Group 3989" transform="translate(12.357 37.981)">
        <path id="Path_9834" data-name="Path 9834" d="M148.964,300.777v9.309a11.238,11.238,0,0,1-11.2,11.2h-3.222a1.543,1.543,0,0,1-1.518-1.818l1.624-8.934a10.648,10.648,0,0,1,2-4.594c3.35-4.365,8.948-4.69,8.948-4.69S146.977,301.032,148.964,300.777Zm0,0" transform="translate(-121.194 -284.125)" fill="#f2bb88"/>
        <path id="Path_9835" data-name="Path 9835" d="M75.323,240.659v6.015a2.977,2.977,0,0,1-2.969,2.968H71a2.976,2.976,0,0,1-2.968-2.968v-6.015a2.974,2.974,0,0,1,1.6-2.63c.787-.415,1.328-.339,2.728-.339A2.978,2.978,0,0,1,75.323,240.659Zm0,0" transform="translate(-68.028 -232.493)" fill="#f2bb88"/>
        <path id="Path_9836" data-name="Path 9836" d="M115.576,227.534v8.214a3.314,3.314,0,0,1-3.3,3.3h-.684a3.314,3.314,0,0,1-3.305-3.3v-8.214a3.312,3.312,0,0,1,1.6-2.826,3.977,3.977,0,0,1,2.392-.479,3.315,3.315,0,0,1,3.306,3.3Zm0,0" transform="translate(-100.97 -221.479)" fill="#f2bb88"/>
        <path id="Path_9837" data-name="Path 9837" d="M155.744,218.388v9.541a3.5,3.5,0,0,1-3.489,3.489h-.316a3.5,3.5,0,0,1-3.489-3.489v-9.541a3.5,3.5,0,0,1,3.489-3.489h.316a3.5,3.5,0,0,1,3.489,3.49Zm0,0" transform="translate(-133.841 -213.845)" fill="#f2bb88"/>
        <path id="Path_9838" data-name="Path 9838" d="M195.9,212.7v10.375a3.609,3.609,0,0,1-3.6,3.6h-.1a3.609,3.609,0,0,1-3.6-3.6V212.7a3.648,3.648,0,0,1,7.295,0Zm0,0" transform="translate(-166.707 -209.102)" fill="#f2bb88"/>
      </g>
      <path id="Path_9839" data-name="Path 9839" d="M82.522,240.662v4.595a2.93,2.93,0,0,1-1.37.339H79.793a2.977,2.977,0,0,1-2.968-2.967v-4.6c.787-.416,1.328-.339,2.728-.339a2.977,2.977,0,0,1,2.969,2.968Zm0,0" transform="translate(-62.87 -194.515)" fill="#f2d1a5"/>
      <path id="Path_9840" data-name="Path 9840" d="M122.772,227.534v6.99a3.279,3.279,0,0,1-1.709.479h-.683a3.315,3.315,0,0,1-3.306-3.305v-6.99a3.976,3.976,0,0,1,2.392-.479,3.315,3.315,0,0,1,3.305,3.3Zm0,0" transform="translate(-95.809 -183.498)" fill="#f2d1a5"/>
      <path id="Path_9841" data-name="Path 9841" d="M162.943,218.344v8.421a3.467,3.467,0,0,1-1.891.561h-.316a3.5,3.5,0,0,1-3.489-3.489v-8.42c2.148-1.4,5.7-.154,5.7,2.928Zm0,0" transform="translate(-128.683 -175.821)" fill="#f2d1a5"/>
      <path id="Path_9842" data-name="Path 9842" d="M203.1,212.7v9.313a3.571,3.571,0,0,1-2,.612h-.1a3.609,3.609,0,0,1-3.6-3.6v-9.313a3.66,3.66,0,0,1,5.7,2.987Zm0,0" transform="translate(-161.549 -171.12)" fill="#f2d1a5"/>
      <path id="Path_9843" data-name="Path 9843" d="M203.1,241.565v5.406a3.571,3.571,0,0,1-2,.612h-.1a3.609,3.609,0,0,1-3.6-3.6v-3.477a2.357,2.357,0,0,1,3.2-.492l1.015.706Zm0,0" transform="translate(-161.549 -196.078)" fill="#f2bb88"/>
      <path id="Path_9844" data-name="Path 9844" d="M179.486,254.458a6.566,6.566,0,0,0-2.82-5.393l-4.117-2.861-.937-.651a2.177,2.177,0,0,0-3.02.544,4.537,4.537,0,0,0,1.134,6.295l1.357.937a1.139,1.139,0,0,1,.092.072,1.072,1.072,0,0,1-.435,1.814,15.332,15.332,0,0,0-7.436,5.092,10.737,10.737,0,0,0-2.1,4.721l-1.24,6.82a3.335,3.335,0,0,0,3.282,3.931,16.292,16.292,0,0,0,16.244-16.244V257.17l0-2.712Zm0,0" transform="translate(-130.863 -200.636)" fill="#f2d1a5"/>
      <path id="Path_9845" data-name="Path 9845" d="M83.249,307.283h-2A13.251,13.251,0,0,1,68.032,294.07v-8.405a2,2,0,1,1,4.01,0v10.408a11.241,11.241,0,0,0,11.208,11.209Zm0,0" transform="translate(-55.674 -232.137)" fill="#f2bb88"/>
    </g>
  </g>
</svg>
