<svg xmlns="http://www.w3.org/2000/svg" width="219.307" height="50.199" viewBox="0 0 219.307 50.199">
  <g id="Group_6105" data-name="Group 6105" transform="translate(-53.693 -3.651)">
    <g id="Group_6087" data-name="Group 6087" transform="translate(50.292 -165.497)">
      <g id="Group_6091" data-name="Group 6091" transform="translate(3.4 169.147)">
        <g id="Group_6088" data-name="Group 6088" transform="translate(15.914 10.494)">
          <path id="Path_10382" data-name="Path 10382" d="M404.079,204.3H390.1c-.384,0-.7.32-.7.927v25.52a.736.736,0,0,0,.7.48h19.284a.737.737,0,0,0,.7-.48V210.536c0-.32-.032-.448-.128-.512l-5.6-5.6A.347.347,0,0,0,404.079,204.3Z" transform="translate(-389.4 -204.3)" fill="#e9e9e0"/>
          <path id="Path_10383" data-name="Path 10383" d="M436,204.5v5.692h5.724Z" transform="translate(-421.098 -204.436)" fill="#d9d7ca"/>
          <circle id="Ellipse_37" data-name="Ellipse 37" cx="2.207" cy="2.207" r="2.207" transform="translate(3.774 4.733)" fill="#ed5929"/>
          <path id="Path_10384" data-name="Path 10384" d="M389.4,241.982h20.691v-5.309l-4.8-4.573-5.053,5.532-2.654-2.622Z" transform="translate(-389.4 -223.21)" fill="#28a79e"/>
          <path id="Path_10385" data-name="Path 10385" d="M409.387,271.187H390.1a.71.71,0,0,1-.7-.7V263h20.691v7.483A.71.71,0,0,1,409.387,271.187Z" transform="translate(-389.4 -244.228)" fill="#28a79e"/>
          <g id="Group_6087-2" data-name="Group 6087" transform="translate(3.139 19.765)">
            <path id="Path_10386" data-name="Path 10386" d="M406.272,268.5v4.66a1.352,1.352,0,0,1-.158.711,1.578,1.578,0,0,1-.395.474,1.337,1.337,0,0,1-.592.237,4.349,4.349,0,0,1-.711.079,1.77,1.77,0,0,1-.434-.04c-.158-.04-.316-.079-.513-.118-.158-.04-.316-.119-.474-.158a1.312,1.312,0,0,1-.395-.237l.395-.671a.641.641,0,0,0,.237.118c.119.039.2.079.316.118a1.154,1.154,0,0,0,.355.079c.118,0,.237.039.355.039a1.129,1.129,0,0,0,.671-.158.691.691,0,0,0,.276-.553V268.5Z" transform="translate(-402.6 -268.461)" fill="#fff"/>
            <path id="Path_10387" data-name="Path 10387" d="M416.487,274.7H415.5v-6h1.737a2.477,2.477,0,0,1,.75.118,2.193,2.193,0,0,1,.671.355,1.75,1.75,0,0,1,.474.592,1.67,1.67,0,0,1,.2.79,1.832,1.832,0,0,1-.158.829,2.257,2.257,0,0,1-.434.632,1.889,1.889,0,0,1-.671.395,3.078,3.078,0,0,1-.869.118h-.711V274.7Zm0-5.252v2.369h.908a1.152,1.152,0,0,0,.355-.079.86.86,0,0,0,.316-.2,1.727,1.727,0,0,0,.237-.395,1.447,1.447,0,0,0,.079-.632,1.361,1.361,0,0,0-.039-.355,1.4,1.4,0,0,0-.158-.355.86.86,0,0,0-.355-.276,1.318,1.318,0,0,0-.592-.119h-.75Z" transform="translate(-410.406 -268.582)" fill="#fff"/>
            <path id="Path_10388" data-name="Path 10388" d="M432.262,271.44v2.33a2.07,2.07,0,0,1-.434.395,1.335,1.335,0,0,1-.474.237,1.216,1.216,0,0,1-.513.118,2.608,2.608,0,0,1-.553.039,2.75,2.75,0,0,1-.987-.2,1.9,1.9,0,0,1-.79-.592,2.437,2.437,0,0,1-.513-.948,4.376,4.376,0,0,1-.2-1.343,4.574,4.574,0,0,1,.2-1.343,2.69,2.69,0,0,1,.513-.948,2.957,2.957,0,0,1,.79-.592,2.75,2.75,0,0,1,.987-.2,2.317,2.317,0,0,1,.908.158,3,3,0,0,1,.75.474l-.671.592a1.235,1.235,0,0,0-.434-.355,1.216,1.216,0,0,0-.513-.119,1.585,1.585,0,0,0-.592.119.922.922,0,0,0-.474.395,2.987,2.987,0,0,0-.355.711,3.976,3.976,0,0,0-.118,1.066,4.407,4.407,0,0,0,.118,1.066,2.675,2.675,0,0,0,.316.75,1.635,1.635,0,0,0,.474.434,1.261,1.261,0,0,0,.553.118h.237c.118,0,.2-.039.316-.039a.571.571,0,0,0,.276-.079.87.87,0,0,0,.2-.118v-1.461h-1.027v-.671Z" transform="translate(-417.849 -268.4)" fill="#fff"/>
          </g>
        </g>
        <path id="Path_10389" data-name="Path 10389" d="M361.326,184.958H377.8V182.4h-19v19.06h2.526Z" transform="translate(-352.672 -178.909)" fill="#28a79e"/>
        <path id="Path_10390" data-name="Path 10390" d="M442.769,249.8v16.533H426.3v2.526h19V249.8Z" transform="translate(-398.586 -224.755)" fill="#28a79e"/>
        <g id="Group_6089" data-name="Group 6089" transform="translate(0 36.621)">
          <path id="Path_10391" data-name="Path 10391" d="M355.254,294.858h2.526V286h-8.89v2.526h4.573L346.3,295.69l1.791,1.791,7.163-7.163Z" transform="translate(-344.169 -286)" fill="#ed5929"/>
          <rect id="Rectangle_575" data-name="Rectangle 575" width="2.526" height="2.526" transform="translate(0 11.791) rotate(-45)" fill="#ed5929"/>
        </g>
        <g id="Group_6090" data-name="Group 6090" transform="translate(36.636 0)">
          <path id="Path_10392" data-name="Path 10392" d="M456.726,180.69H454.2v8.89h8.858v-2.526h-4.541l7.163-7.163-1.823-1.791-7.131,7.163Z" transform="translate(-454.2 -175.984)" fill="#ed5929"/>
          <rect id="Rectangle_576" data-name="Rectangle 576" width="2.526" height="2.526" transform="translate(9.982 1.786) rotate(-45)" fill="#ed5929"/>
        </g>
      </g>
      <text id="Compress_JPG" data-name="Compress JPG" transform="translate(63.708 205.497)" fill="#28a79e" font-size="30" font-family="AgencyFB-Bold, Agency FB" font-weight="700"><tspan x="0" y="0">COMPRESS JPG</tspan></text>
    </g>
  </g>
</svg>
