<svg xmlns="http://www.w3.org/2000/svg" width="181.579" height="44.397" viewBox="0 0 181.579 44.397">
  <g id="Group_6109" data-name="Group 6109" transform="translate(-1818.693 188.151)">
    <g id="Group_6108" data-name="Group 6108" transform="translate(1818.693 -188.151)">
      <g id="Group_6088" data-name="Group 6088" transform="translate(14.075 9.281)">
        <path id="Path_10382" data-name="Path 10382" d="M402.382,204.3h-12.36c-.339,0-.622.283-.622.82v22.57a.651.651,0,0,0,.622.424h17.055a.651.651,0,0,0,.622-.424V209.815c0-.283-.028-.4-.113-.453l-4.95-4.95A.307.307,0,0,0,402.382,204.3Z" transform="translate(-389.4 -204.3)" fill="#e9e9e0"/>
        <path id="Path_10383" data-name="Path 10383" d="M436,204.5v5.034h5.063Z" transform="translate(-422.82 -204.443)" fill="#d9d7ca"/>
        <circle id="Ellipse_37" data-name="Ellipse 37" cx="1.952" cy="1.952" r="1.952" transform="translate(3.337 4.186)" fill="#ed5929"/>
        <path id="Path_10384" data-name="Path 10384" d="M389.4,240.84h18.3v-4.7l-4.242-4.045-4.469,4.893-2.348-2.319Z" transform="translate(-389.4 -224.237)" fill="#ed5929"/>
        <path id="Path_10385" data-name="Path 10385" d="M407.077,270.241H390.022a.628.628,0,0,1-.622-.622V263h18.3v6.618A.628.628,0,0,1,407.077,270.241Z" transform="translate(-389.4 -246.398)" fill="#ed5929"/>
        <g id="Group_6087" data-name="Group 6087" transform="translate(2.776 17.481)">
          <path id="Path_10386" data-name="Path 10386" d="M405.848,268.5v4.121a1.2,1.2,0,0,1-.14.629,1.4,1.4,0,0,1-.349.419,1.183,1.183,0,0,1-.524.21,3.841,3.841,0,0,1-.629.07,1.566,1.566,0,0,1-.384-.035c-.14-.035-.279-.07-.454-.1-.14-.035-.279-.1-.419-.14a1.161,1.161,0,0,1-.349-.21l.349-.594a.567.567,0,0,0,.21.1c.1.035.175.07.279.1a1.02,1.02,0,0,0,.314.07c.1,0,.21.035.314.035a1,1,0,0,0,.594-.14.611.611,0,0,0,.244-.489V268.5Z" transform="translate(-402.6 -268.465)" fill="#fff"/>
          <path id="Path_10387" data-name="Path 10387" d="M416.373,274.008H415.5V268.7h1.537a2.192,2.192,0,0,1,.664.1,1.94,1.94,0,0,1,.594.314,1.547,1.547,0,0,1,.419.524,1.477,1.477,0,0,1,.175.7,1.62,1.62,0,0,1-.14.733,2,2,0,0,1-.384.559,1.671,1.671,0,0,1-.594.349,2.723,2.723,0,0,1-.768.1h-.629v1.921Zm0-4.645v2.1h.8a1.02,1.02,0,0,0,.314-.07.76.76,0,0,0,.279-.175,1.525,1.525,0,0,0,.21-.349,1.279,1.279,0,0,0,.07-.559,1.2,1.2,0,0,0-.035-.314,1.243,1.243,0,0,0-.14-.314.761.761,0,0,0-.314-.244,1.166,1.166,0,0,0-.524-.1h-.664Z" transform="translate(-410.995 -268.595)" fill="#fff"/>
          <path id="Path_10388" data-name="Path 10388" d="M431.746,271.089v2.061a1.832,1.832,0,0,1-.384.349,1.181,1.181,0,0,1-.419.21,1.075,1.075,0,0,1-.454.1,2.306,2.306,0,0,1-.489.035,2.432,2.432,0,0,1-.873-.175,1.681,1.681,0,0,1-.7-.524,2.155,2.155,0,0,1-.454-.838,3.87,3.87,0,0,1-.175-1.187,4.044,4.044,0,0,1,.175-1.187,2.378,2.378,0,0,1,.454-.838,2.616,2.616,0,0,1,.7-.524A2.433,2.433,0,0,1,430,268.4a2.049,2.049,0,0,1,.8.14,2.654,2.654,0,0,1,.663.419l-.594.524a1.092,1.092,0,0,0-.384-.314,1.076,1.076,0,0,0-.454-.1,1.4,1.4,0,0,0-.524.1.815.815,0,0,0-.419.349,2.642,2.642,0,0,0-.314.629,3.517,3.517,0,0,0-.1.943,3.9,3.9,0,0,0,.1.943,2.366,2.366,0,0,0,.279.664,1.447,1.447,0,0,0,.419.384,1.116,1.116,0,0,0,.489.1h.209c.1,0,.175-.035.279-.035a.505.505,0,0,0,.245-.07.77.77,0,0,0,.175-.1v-1.292h-.908v-.594Z" transform="translate(-418.999 -268.4)" fill="#fff"/>
        </g>
      </g>
      <path id="Path_10389" data-name="Path 10389" d="M361.034,184.663H375.6V182.4H358.8v16.857h2.234Z" transform="translate(-353.38 -179.313)" fill="#fff"/>
      <path id="Path_10390" data-name="Path 10390" d="M440.866,249.8v14.623H426.3v2.234h16.8V249.8Z" transform="translate(-401.789 -227.65)" fill="#fff"/>
      <g id="Group_6089" data-name="Group 6089" transform="translate(0 32.389)">
        <path id="Path_10391" data-name="Path 10391" d="M354.219,293.835h2.234V286h-7.863v2.234h4.045L346.3,294.57l1.584,1.584,6.336-6.336Z" transform="translate(-344.416 -286)" fill="#ed5929"/>
        <rect id="Rectangle_575" data-name="Rectangle 575" width="2.234" height="2.234" transform="translate(0 10.428) rotate(-45)" fill="#ed5929"/>
      </g>
      <g id="Group_6090" data-name="Group 6090" transform="translate(32.402 0)">
        <path id="Path_10392" data-name="Path 10392" d="M456.434,180.391H454.2v7.863h7.835v-2.234h-4.016l6.335-6.336-1.612-1.584-6.307,6.336Z" transform="translate(-454.2 -176.229)" fill="#ed5929"/>
        <rect id="Rectangle_576" data-name="Rectangle 576" width="2.234" height="2.234" transform="translate(8.829 1.58) rotate(-45)" fill="#ed5929"/>
      </g>
    </g>
    <path id="Path_10393" data-name="Path 10393" d="M12.759-2.914H9.082L4.849-12.862v9.947H1.515v-22.3H4.849v9.434l3.705-9.434H12.2v.157L7.671-14.472ZM23.419-4.7a1.587,1.587,0,0,1-1.81,1.781H15.766A1.6,1.6,0,0,1,13.927-4.7V-15.527a1.6,1.6,0,0,1,1.838-1.781h5.843a1.587,1.587,0,0,1,1.81,1.781Zm-3.192-.926v-8.964H17.134v8.964ZM41.646-2.914H38.411V-14.586l-3.064.057V-2.914H32.1V-14.586l-3.064.057V-2.914H25.77V-17.308h3.263v.527l2.266-.371a15.536,15.536,0,0,1,2.294-.214q1.126,0,1.454.641,1.2-.185,2.394-.385a16.371,16.371,0,0,1,2.423-.257,1.562,1.562,0,0,1,1.781,1.753ZM53.588-5.807a2.565,2.565,0,0,1-1.254,2.451,5.951,5.951,0,0,1-2.765.5q-.428,0-1.2-.029t-1.119-.029V2.344H43.983V-17.308h3.263v.527q1.14-.171,2.28-.356a15.427,15.427,0,0,1,2.28-.228,1.562,1.562,0,0,1,1.781,1.753Zm-3.278-.9v-7.881l-3.064.057v8.907H49.27Q50.31-5.622,50.31-6.705Zm14.664-4.589H61.74v-3.292l-2.579.057V-2.914H55.9V-17.308H59.16v.527l2.009-.371a12.025,12.025,0,0,1,2.024-.214,1.562,1.562,0,0,1,1.781,1.753ZM76.119-4.7a1.6,1.6,0,0,1-1.838,1.781H68.651A1.6,1.6,0,0,1,66.813-4.7V-15.527a1.6,1.6,0,0,1,1.838-1.781h5.629a1.6,1.6,0,0,1,1.838,1.781v5.287l-.9.9H69.934v4.033H73V-7.7h3.121ZM73-11.465v-3.449H69.934v3.449ZM87.534-4.7a1.587,1.587,0,0,1-1.81,1.781H80.238A1.587,1.587,0,0,1,78.428-4.7V-7.788h3.121v2.423h2.864v-2.28l-5-2.95a1.766,1.766,0,0,1-.983-1.568v-3.363a1.6,1.6,0,0,1,1.838-1.781H85.7a1.587,1.587,0,0,1,1.81,1.781v2.893H84.413v-2.223H81.549v2.081l4.988,2.921a1.763,1.763,0,0,1,1,1.6Zm18.484-.257a1.808,1.808,0,0,1-2.052,2.038H97.638a1.789,1.789,0,0,1-2.009-2.038v-5.487h3.321v4.66h3.734V-25.217h3.335Zm13.424-8.123a1.82,1.82,0,0,1-2.038,2.081H112v8.08h-3.335v-22.3H117.4a1.808,1.808,0,0,1,2.038,2.052Zm-3.363-.784v-8.494H112v8.494Zm16.759,8.907A1.8,1.8,0,0,1,130.8-2.914h-7.012a1.777,1.777,0,0,1-1.981-2.038V-23.165a1.8,1.8,0,0,1,2.024-2.052H130.8a1.808,1.808,0,0,1,2.038,2.052v4.76h-3.349v-3.948h-4.347V-5.779h4.347v-6.242h-2.48v-2.836h5.829Z" transform="translate(1867.433 -152.203)" fill="#fff"/>
  </g>
</svg>
