<svg xmlns="http://www.w3.org/2000/svg" width="19.178" height="19.189" viewBox="0 0 19.178 19.189">
  <path id="Path_12" data-name="Path 12" d="M285.717,395.23a9.594,9.594,0,1,0,9.591,9.594A9.595,9.595,0,0,0,285.717,395.23Zm5.124,9.7c-.277.309-.684.222-1.094-.218-1.085-1.163-2.168-2.33-3.259-3.5-.218.2-.127.411-.127.6-.008,2.654,0,5.306-.006,7.959a4,4,0,0,1-.02.555.568.568,0,0,1-.6.541.585.585,0,0,1-.634-.567,3.921,3.921,0,0,1-.012-.5q0-3.98,0-7.96a1.036,1.036,0,0,0-.059-.593c-.221.026-.3.213-.42.34-.954,1.012-1.9,2.032-2.851,3.047a2.241,2.241,0,0,1-.36.345.607.607,0,0,1-.815-.041.569.569,0,0,1-.068-.807,10.418,10.418,0,0,1,.7-.79q1.914-2.058,3.832-4.111c.526-.561.812-.565,1.334-.008q2.166,2.317,4.324,4.641C291.01,404.185,291.2,404.532,290.841,404.93Z" transform="translate(295.308 414.419) rotate(180)" fill="#fff"/>
</svg>
