<svg xmlns="http://www.w3.org/2000/svg" width="20.794" height="20.324" viewBox="0 0 20.794 20.324">
  <path id="Icon_ionic-ios-refresh" data-name="Icon ionic-ios-refresh" d="M12.164,8.465a.492.492,0,0,0-.491.448A5.352,5.352,0,1,1,6.2,3.148a.129.129,0,0,1,.135.132V4.938a.528.528,0,0,0,.811.445l3.171-2.219a.527.527,0,0,0,0-.893L7.15.082a.528.528,0,0,0-.811.445V2.034a.129.129,0,0,1-.129.132A6.3,6.3,0,1,0,12.656,9a.49.49,0,0,0-.491-.531Z" transform="matrix(0.588, 0.809, -0.809, 0.588, 12.646, 0.705)" fill="#fff" stroke="#fff" stroke-width="1"/>
</svg>
